<?xml version="1.0" encoding="utf-8"?>
<!-- Generator: Adobe Illustrator 22.0.1, SVG Export Plug-In . SVG Version: 6.00 Build 0)  -->
<svg version="1.1" id="Layer_1" xmlns="http://www.w3.org/2000/svg" xmlns:xlink="http://www.w3.org/1999/xlink" x="0px" y="0px"
	 viewBox="0 0 1200 800" style="enable-background:new 0 0 1200 800;" xml:space="preserve">
<g>
	<path d="M433.6,413.7v11.1h-0.3c-1.8,0-3.1-0.6-3.9-1.7c-0.4,3.1-1.5,5.5-3.3,7.3c-2.5,2.4-6.2,3.7-11.1,3.7
		c-4.1,0-7.2-1.1-9.1-3.4c-1.5-1.8-2.4-4.4-2.4-7.6c-0.1-3.7,0.6-7.4,2-11.1h3.1c-0.8,3.9-0.9,6.5-0.2,7.9c0.9,1.9,3.5,2.8,7.6,2.8
		c4.5,0,7.4-0.8,8.8-2.5c1.5-1.8,1.4-5.8-0.4-11.8c-1.5-5.1-3.1-8.9-4.8-11.3l8.7-8.1c0.4-0.4,0.6-0.5,0.7-0.5s0.2,0.3,0.5,0.8
		c0.4,0.8,1,2.1,1.8,3.8c0.8,1.7,1.4,3,1.8,3.8c0.6,1.2,0.4,2.3-0.4,3.3c-0.8,1-1.9,1.3-3.1,0.9v9.4c0,0.6,0.2,1.3,0.5,2.1
		s1.1,1.2,2.3,1.5H433.6z"/>
	<path d="M433.2,413.7h19.6v11.1h-19.6V413.7z"/>
	<path d="M452.3,413.7h19.6v11.1h-19.6V413.7z"/>
	<path d="M482.4,399c2.3,2.8,3.4,5.7,3.4,8.6v10c0,3-1.3,5.1-3.8,6.3c-1.3,0.6-2.7,0.9-4.3,0.9h-6.3v-11.1h7.4c1.1,0,1.8,0,1.9-0.1
		c0.6-0.1,0.8-0.5,0.8-1.1c0-0.8-1.8-2.3-5.4-4.4L482.4,399z M480.2,430.8c0.2-0.2,0.2-0.4,0-0.6l-3.5-3.5c-0.2-0.2-0.4-0.2-0.6,0
		l-3.5,3.5c-0.2,0.2-0.2,0.4,0,0.6l3.5,3.5c0.2,0.2,0.4,0.2,0.6,0L480.2,430.8z M488.2,430.8c0.2-0.2,0.2-0.4,0-0.6l-3.5-3.5
		c-0.2-0.2-0.4-0.2-0.6,0l-3.5,3.5c-0.2,0.2-0.2,0.4,0,0.6l3.5,3.5c0.2,0.2,0.4,0.2,0.6,0L488.2,430.8z"/>
	<path d="M503,413.7v11.1h-4.9c-2.1,0-3.8-0.9-5.3-2.8c-1.5-1.8-2.2-4-2.2-6.6v-16.4c-0.7,0.1-1.3-0.1-1.8-0.5
		c-0.5-0.4-0.8-0.9-1-1.5c-0.2-0.6-0.2-1.3,0-1.9c0.2-0.7,0.6-1.2,1.2-1.6c3.3-2.2,5.7-3.8,7.1-4.8c0.6-0.4,1-0.5,1.4-0.2
		c0.4,0.3,0.6,0.7,0.5,1.4v20.6c0,1.2,0.2,2,0.6,2.5c0.5,0.6,1.2,0.9,2.3,0.9H503z"/>
	<path d="M506.6,434.4c-0.2,0.2-0.4,0.2-0.6,0l-3.5-3.5c-0.2-0.2-0.2-0.4,0-0.6l3.5-3.5c0.2-0.2,0.4-0.2,0.6,0l3.5,3.5
		c0.2,0.2,0.2,0.4,0,0.6L506.6,434.4z M503.6,408.1c3.6,2.1,5.4,3.6,5.4,4.4c0,0.6-0.3,1-0.8,1.1c-0.1,0-0.8,0-1.9,0.1h-4v11.1h2.8
		c1.5,0,3-0.3,4.3-0.9c2.6-1.2,3.8-3.2,3.8-6.3v-10c0-3-1.1-5.8-3.4-8.6L503.6,408.1z"/>
	<path d="M534.1,424.8H532c0,2.1,0,4.2,0,6.3c0,2.5-0.9,4.6-2.7,6.3c-1.8,1.8-4.1,2.7-6.8,2.7c-2.3,0-5-0.8-8.2-2.5
		c-1.6-0.8-3-1.6-4.1-2.4c0.7-0.3,2-0.9,4-1.9c2.1-1,3.8-1.8,4.9-2.3c4.1-2,6.9-3.5,8.2-4.6c0.6-0.5,1.1-1.1,1.3-1.7h-7.7
		c-0.7,0-1.2,0-1.6,0c-0.9,0-1.8-0.2-2.4-0.7c-0.9-0.7-1.4-1.7-1.4-3v-10.6c0-1.5,0.3-2.9,0.9-4.1c1.3-2.5,3.6-3.8,7-3.8
		c3.5,0,6,1.3,7.5,3.8c0.9,1.4,1.3,2.9,1.3,4.3v3.2h2.2V424.8z M526.9,413.8c-0.4-1.1-1.2-1.9-2.2-2.4c-0.9-0.5-1.9-0.8-3.1-0.8
		c-1.3,0-2.4,0.5-3.3,1.6c-0.2,0.3-0.3,0.6-0.4,1c0,0.4,0.1,0.6,0.4,0.6H526.9z"/>
	<path d="M554.5,416.5c0.7,2.3,0.6,4.7-0.3,7.2c-0.9,2.2-2.5,3.6-4.5,4.4c-2.1,0.7-4,0.7-5.5-0.2c-2.2-1.3-3.7-3.1-4.4-5.6
		c-1.4,1.5-2.8,2.3-4.4,2.4h-1.8v-11.1h1.8c0.9,0,1.4-0.4,1.3-1.3c-0.5-2-0.3-4,0.7-5.7c1-1.8,2.5-3,4.4-3.7
		c2.1-0.7,4.2-0.6,6.2,0.5c2,1.1,3.2,2.6,3.7,4.6L554.5,416.5z M549.8,421.3c0.6-0.2,1-0.6,1.3-1.2c0.3-0.6,0.3-1.2,0.1-1.8
		l-3.3-9.2l-0.4-1.2c-0.2-0.6-0.6-1.1-1.1-1.4c-0.6-0.3-1.1-0.3-1.7-0.1c-0.6,0.2-1.1,0.6-1.4,1.1c-0.3,0.6-0.3,1.1-0.1,1.7l0.4,1.2
		l0.1,0.1l3.3,9.3c0.2,0.6,0.6,1,1.1,1.3C548.6,421.4,549.2,421.5,549.8,421.3z"/>
	<path d="M595.5,403.6c0.5,0.6,1.1,1.5,1.9,2.8c1.1,1.8,1.7,2.9,1.9,3.2c1.6,2.5,3.1,3.8,4.6,4c0.3,0,1.4,0.1,3.4,0v11.1h-1.8
		c-2.3,0-4.3-0.8-5.8-2.4c0,3.3-0.7,6-2.1,8.2c-2.6,3.8-7.2,5.7-13.9,5.7c-4.5,0-7.8-1.1-9.9-3.4c-1.7-1.8-2.5-4.4-2.6-7.6
		c-0.1-3.7,0.7-7.4,2.3-11.1h3.4c-0.9,3.9-1,6.5-0.3,7.9c1,1.9,3.7,2.8,8.3,2.8c7.1,0,10.7-1.8,10.7-5.3c0-1.4-2.2-3.9-6.5-7.8
		L595.5,403.6z M587.9,414.8c0.2-0.2,0.2-0.4,0-0.6l-3.6-3.5c-0.2-0.2-0.4-0.2-0.6,0l-3.6,3.5c-0.2,0.2-0.2,0.4,0,0.6l3.6,3.5
		c0.2,0.2,0.4,0.2,0.6,0L587.9,414.8z"/>
	<path d="M606.6,413.7h19.6v11.1h-19.6V413.7z"/>
	<path d="M625.7,413.7h19.6v11.1h-19.6V413.7z"/>
	<path d="M644.8,413.7h19.6v11.1h-19.6V413.7z"/>
	<path d="M684.9,413.7c0.7,0,1.2-0.2,1.6-0.7c0.3-0.5,0.5-1,0.5-1.8v-3.4h4.4v3.4c0,0.7,0.2,1.3,0.7,1.8s1.1,0.7,1.8,0.7h3.2v11.1
		h-1.9c-2,0-3.8-1-5.4-2.9c-1.1,1.8-2.7,2.8-4.6,2.9s-3.5-0.8-4.7-2.6c-1.2,1.8-2.7,2.7-4.6,2.6c-1.9-0.1-3.4-1-4.5-2.9
		c-1.7,1.9-3.5,2.9-5.4,2.9h-2v-11.1h3.3c0.7,0,1.3-0.2,1.8-0.7c0.5-0.5,0.7-1.1,0.7-1.8v-3.4h4.4v3.4c0,0.7,0.2,1.3,0.5,1.8
		c0.4,0.5,0.9,0.7,1.6,0.7c1.1,0,1.8-0.6,2-1.8v-4.2h4.5v4.2C683.1,413.1,683.8,413.7,684.9,413.7z M680.4,402.6
		c0.2-0.2,0.2-0.4,0-0.6l-3.5-3.5c-0.2-0.2-0.4-0.2-0.6,0l-3.5,3.5c-0.2,0.2-0.2,0.4,0,0.6l3.5,3.5c0.2,0.2,0.4,0.2,0.6,0
		L680.4,402.6z M684.3,396.7c0.2-0.2,0.2-0.4,0-0.6l-3.5-3.5c-0.2-0.2-0.4-0.2-0.6,0l-3.5,3.5c-0.2,0.2-0.2,0.4,0,0.6l3.5,3.5
		c0.2,0.2,0.4,0.2,0.6,0L684.3,396.7z M688.3,402.6c0.2-0.2,0.2-0.4,0-0.6l-3.6-3.5c-0.2-0.2-0.4-0.2-0.6,0l-3.6,3.5
		c-0.2,0.2-0.2,0.4,0,0.6l3.6,3.5c0.2,0.2,0.4,0.2,0.6,0L688.3,402.6z"/>
	<path d="M714.5,424.8h-2.7c-2.4,0-4.5-1.2-6.3-3.5c-1.7,2.3-3.8,3.5-6.2,3.5h-2.7v-11.1h4.2c0.6,0,1.2-0.2,1.7-0.7
		c0.5-0.5,0.7-1.1,0.7-1.8v-3.5h4.4v3.5c0,0.7,0.3,1.3,0.8,1.8c0.5,0.5,1.1,0.7,1.7,0.7h4.2V424.8z M705.5,430.8
		c0.2-0.2,0.2-0.4,0-0.6l-3.5-3.5c-0.2-0.2-0.4-0.2-0.6,0l-3.5,3.5c-0.2,0.2-0.2,0.4,0,0.6l3.5,3.5c0.2,0.2,0.4,0.2,0.6,0
		L705.5,430.8z M713.4,430.8c0.2-0.2,0.2-0.4,0-0.6l-3.5-3.5c-0.2-0.2-0.4-0.2-0.6,0l-3.5,3.5c-0.2,0.2-0.2,0.4,0,0.6l3.5,3.5
		c0.2,0.2,0.4,0.2,0.6,0L713.4,430.8z"/>
	<path d="M738.4,413.7v11.1h-1.7c-2.1,0-4.2-1.4-6.3-4.3c-0.8,1.7-2.2,3-4.3,3.7c-1.1,0.4-2.3,0.6-3.4,0.6H714v-11.1l9.7,0
		c1.4,0,2.4-0.4,2.8-1.3c0.4-0.7,0.3-1.5-0.2-2.4c-0.9-1.6-3.3-3.4-7.1-5.6c-2.7-1.6-4.5-2.6-5.3-2.9l2.9-10.2l17.2-8.7
		c0.8-0.4,1.5-0.5,2-0.2c0.6,0.3,0.8,0.9,0.6,1.7c-0.1,0.7-0.5,2.5-1.1,5.4c-0.5,2.4-0.9,4.2-1.1,5.3c-0.1,0.5-0.4,0.9-0.8,1.2
		c-0.4,0.3-0.9,0.4-1.4,0.3s-0.9-0.4-1.2-0.8c-0.3-0.4-0.4-0.9-0.3-1.4l-7.4,3.4c0.5,0.4,1.4,1.2,2.6,2.5c0.4,0.4,0.6,0.7,0.8,0.8
		c1.9,2.3,3.2,4.3,4,5.9c0.4,0.8,1,2.5,1.8,5.2c0.2,0.3,0.4,0.6,0.5,0.8c0.5,0.5,1,0.8,1.8,0.8H738.4z"/>
	<path d="M755.8,424.8h-2.7c-2.4,0-4.5-1.2-6.3-3.5c-1.7,2.3-3.8,3.5-6.2,3.5H738v-11.1h4.2c0.6,0,1.2-0.2,1.7-0.7
		c0.5-0.5,0.7-1.1,0.7-1.8v-3.5h4.4v3.5c0,0.7,0.3,1.3,0.8,1.8c0.5,0.5,1.1,0.7,1.7,0.7h4.2V424.8z M746.8,430.8
		c0.2-0.2,0.2-0.4,0-0.6l-3.5-3.5c-0.2-0.2-0.4-0.2-0.6,0l-3.5,3.5c-0.2,0.2-0.2,0.4,0,0.6l3.5,3.5c0.2,0.2,0.4,0.2,0.6,0
		L746.8,430.8z M754.7,430.8c0.2-0.2,0.2-0.4,0-0.6l-3.5-3.5c-0.2-0.2-0.4-0.2-0.6,0l-3.5,3.5c-0.2,0.2-0.2,0.4,0,0.6l3.5,3.5
		c0.2,0.2,0.4,0.2,0.6,0L754.7,430.8z"/>
	<path d="M773.6,413.7v11.1h-4.2c-2.1,0-4.1-1.1-5.9-3.4c-2.1,2.2-4.2,3.4-6.4,3.4h-1.6v-11.1h3.2c0.7,0,1.3-0.2,1.8-0.7
		c0.5-0.5,0.7-1.1,0.7-1.7l0-0.1v-10.7c-1,0-1.8-0.5-2.4-1.3c-0.5-0.7-0.6-1.4-0.5-2.3s0.6-1.5,1.2-1.9l8.7-6.1
		c0.4-0.3,0.7-0.5,0.7-0.5c0,0,0,0.3,0,0.8V410c0,1.1,0.4,2.1,1.2,2.8c0.8,0.6,1.7,0.8,2.8,0.8H773.6z"/>
	<path d="M775.7,434.4c-0.2,0.2-0.4,0.2-0.6,0l-3.5-3.5c-0.2-0.2-0.2-0.4,0-0.6l3.5-3.5c0.2-0.2,0.4-0.2,0.6,0l3.5,3.5
		c0.2,0.2,0.2,0.4,0,0.6L775.7,434.4z M775.2,408c3.6,2.1,5.4,3.6,5.4,4.5c0,0.6-0.3,1-0.8,1.1c-0.2,0-0.8,0.1-1.9,0.1h-4.6v11.1
		h3.5c1.5,0,3-0.3,4.3-0.9c2.6-1.2,3.8-3.3,3.8-6.3v-10c0-2.9-1.2-5.8-3.4-8.6L775.2,408z M779.6,440.1c-0.2,0.2-0.4,0.2-0.6,0
		l-3.5-3.5c-0.2-0.2-0.2-0.4,0-0.6l3.5-3.5c0.2-0.2,0.4-0.2,0.6,0l3.5,3.5c0.2,0.2,0.2,0.4,0,0.6L779.6,440.1z M783.6,434.4
		c-0.2,0.2-0.4,0.2-0.6,0l-3.5-3.5c-0.2-0.2-0.2-0.4,0-0.6l3.5-3.5c0.2-0.2,0.4-0.2,0.6,0l3.5,3.5c0.2,0.2,0.2,0.4,0,0.6
		L783.6,434.4z"/>
	<path d="M797.5,389c0,0.1-1,12-2.9,35.7h-3.4l-5.1-29.4c5.6-3.9,8.7-6.1,9.4-6.5c0.6-0.5,1.1-0.7,1.4-0.5
		C797.4,388.4,797.6,388.7,797.5,389z"/>
</g>
</svg>
