<?xml version="1.0" encoding="utf-8"?>
<!-- Generator: Adobe Illustrator 20.0.0, SVG Export Plug-In . SVG Version: 6.00 Build 0)  -->
<svg version="1.1"
	 id="Hy2UKO26W" inkscape:version="0.92.2 (5c3e80d, 2017-08-06)" sodipodi:docname="laptop-open-frontal-view-with-buttons-and-blank-screen.svg" xmlns:cc="http://creativecommons.org/ns#" xmlns:dc="http://purl.org/dc/elements/1.1/" xmlns:inkscape="http://www.inkscape.org/namespaces/inkscape" xmlns:rdf="http://www.w3.org/1999/02/22-rdf-syntax-ns#" xmlns:sodipodi="http://sodipodi.sourceforge.net/DTD/sodipodi-0.dtd" xmlns:svg="http://www.w3.org/2000/svg"
	 xmlns="http://www.w3.org/2000/svg" xmlns:xlink="http://www.w3.org/1999/xlink" x="0px" y="0px" viewBox="0 0 44.9 44.9"
	 style="enable-background:new 0 0 44.9 44.9;" xml:space="preserve">
<style type="text/css">
	.st0{fill:none;stroke:#000000;stroke-width:0.25;stroke-miterlimit:10;}
	.st1{fill:#FFFFFF;stroke:#000000;stroke-width:0.25;stroke-miterlimit:10;}
	.st2{fill:#231F20;}
	.st3{fill:none;}
	.st4{fill:#474747;}
	.st5{fill:#BDBDBD;}
	.st6{stroke:#000000;stroke-width:0.125;stroke-miterlimit:10;}
</style>
<sodipodi:namedview  bordercolor="#666666" borderopacity="1" gridtolerance="10" guidetolerance="10" id="HylnIKu3TW" inkscape:current-layer="Capa_1" inkscape:cx="22.466999" inkscape:cy="22.466999" inkscape:pageopacity="0" inkscape:pageshadow="2" inkscape:window-height="1004" inkscape:window-maximized="1" inkscape:window-width="1920" inkscape:window-x="-4" inkscape:window-y="-4" inkscape:zoom="18.159969" objecttolerance="10" pagecolor="#ffffff" showgrid="false">
	</sodipodi:namedview>
<g id="BkZ28t_2ab">
	<g id="SkzhLFu2a-">
		<g id="SJQ3Utd26-">
			<path id="BJV2IFO2p-" d="M39.9,6.3H5v23h34.9V6.3z M36.4,25.7H8.6V9.8h27.8V25.7z"/>
			<polygon id="H1BnLKO26-" points="27.3,37.2 17.8,37.2 0,37.2 0,38.7 44.9,38.7 44.9,37.2 			"/>
			<path id="rJUhLYO2Tb" d="M39.9,30.3H23h-1H5l-4.8,6.4h44.4L39.9,30.3z M34.9,31.5h1.9v1h-1.9V31.5z M38,33v1h-1.9v-1H38z
				 M35.6,33v1h-1.9v-1H35.6z M32.3,31.5h1.9v1h-1.9V31.5z M33,33v1h-1.9v-1H33z M29.6,31.5h1.9v1h-1.9V31.5z M30.3,33v1h-1.9v-1
				H30.3z M26.8,31.5h1.9v1h-1.9V31.5z M24.2,31.5h1.9v1h-1.9V31.5z M24.9,33v1H23v-1H24.9z M21.5,31.5h1.9v1h-1.9V31.5z M22.3,33v1
				h-1.9v-1H22.3z M18.9,31.5h1.9v1h-1.9V31.5z M19.6,33v1h-1.9v-1H19.6z M16.1,31.5H18v1h-1.9V31.5z M16.8,33v1h-1.9v-1H16.8z
				 M13.4,31.5h1.9v1h-1.9V31.5z M14.2,33v1h-1.9v-1H14.2z M10.8,31.5h1.9v1h-1.9V31.5z M11.5,33v1H9.6v-1H11.5z M8.1,31.5H10v1H8.1
				V31.5z M6.9,33h1.9v1H6.9V33z M7.3,35.4H5.4v-1h1.9V35.4z M9.8,35.4h-2v-1h1.9v1H9.8z M12.4,35.4h-1.9v-1h1.9V35.4z M15.1,35.4
				h-1.9v-1h1.9V35.4L15.1,35.4z M17.7,35.4h-1.9v-1h1.9V35.4z M25.6,35.4h-7.1v-1h7.1V35.4z M25.6,33h1.9v1h-1.9V33z M28.5,35.4
				h-1.9v-1h1.9V35.4z M31.2,35.4h-1.9v-1h1.9V35.4z M33.9,35.4H32v-1h1.9V35.4z M36.5,35.4h-1.9v-1h1.9V35.4z M38.9,35.4H37v-1h1.9
				V35.4z"/>
		</g>
	</g>
</g>
<g id="H1DhLtdnab">
</g>
<g id="rJOn8tunpZ">
</g>
<g id="Hkt2It_hpZ">
</g>
<g id="Hy93Itu2pZ">
</g>
<g id="Ski2LYO36b">
</g>
<g id="SJnhIt_hT-">
</g>
<g id="HJpnUtO2T-">
</g>
<g id="HyA3IKO2p-">
</g>
<g id="HyJg3IYd3pb">
</g>
<g id="Syll3UKd2p-">
</g>
<g id="By-lnIYOna-">
</g>
<g id="HkGlhIY_npb">
</g>
<g id="S1Qe2LtO36W">
</g>
<g id="B1VxhUFOh6b">
</g>
<g id="HJBlh8Ku2aZ">
</g>
<line id="BJUghLKu3a-" class="st0" x1="7.8" y1="11.4" x2="37.2" y2="11.4"/>
<path id="SJwehLtunp-" class="st1" d="M33.8,23.4h-5.5c-0.3,0-0.5-0.2-0.5-0.5v-9.1c0-0.3,0.2-0.5,0.5-0.5h5.5
	c0.3,0,0.5,0.2,0.5,0.5v9.1C34.3,23.2,34.1,23.4,33.8,23.4z"/>
<polygon id="SkOl3Utu2pZ" class="st2" points="33.1,14.1 32.1,14.7 33.1,15.3 "/>
<line id="SJte3UFun6W" class="st3" x1="33.3" y1="16" x2="34" y2="15.3"/>
<path id="HJ5ghLKu3pW" class="st0" d="M33,16h-4H33z"/>
<line id="HJhe38Yd36Z" class="st0" x1="33" y1="19.9" x2="29" y2="19.9"/>
<line id="B1TxnUFdhaZ" class="st0" x1="33" y1="18.6" x2="29" y2="18.6"/>
<path id="S1GWh8tOnab" d="M12.9,14.7c-0.7,0-1.3,0.6-1.3,1.3c0,0.7,0.6,1.3,1.3,1.3s1.3-0.6,1.3-1.3S13.6,14.7,12.9,14.7z M13.5,16
	l-0.9,0.6l0,0l0,0l0,0v-1.3l0,0l0,0L13.5,16C13.6,15.9,13.6,15.9,13.5,16C13.6,16,13.6,16,13.5,16z"/>
<path id="HJXWn8Kuna-" d="M25.7,20.6h-4.3c-0.2,0-0.3-0.1-0.3-0.3l0,0c0-0.2,0.1-0.3,0.3-0.3h4.3c0.2,0,0.3,0.1,0.3,0.3l0,0
	C26,20.5,25.9,20.6,25.7,20.6z"/>
<line id="SyNWhLF_3T-" class="st3" x1="26" y1="21.7" x2="14.5" y2="21.7"/>
<g>
	<g>
		<path id="rJdb2ItdnTW" d="M15.7,17.6c0,0.2,0.2,0.4,0.4,0.4h3.3c0.2,0,0.4-0.2,0.4-0.4v-3.3c0-0.2-0.2-0.4-0.4-0.4h-3.3
			c-0.2,0-0.4,0.2-0.4,0.4V17.6z M19.4,17.8h-3.3c-0.1,0-0.2-0.1-0.2-0.2V17l0.8-0.8l0.7,0.7h0.1l1.2-1.2l0.9,0.9v1
			C19.7,17.7,19.6,17.8,19.4,17.8z M16.1,14.1h3.3c0.1,0,0.2,0.1,0.2,0.2v2l-0.8-0.8h-0.1l-1.2,1.2L16.8,16h-0.1l-0.8,0.8v-2.4
			C15.9,14.2,16,14.1,16.1,14.1z"/>
		<path id="ryKWhLFu3pZ" d="M17,15.5c0.3,0,0.5-0.2,0.5-0.5s-0.2-0.5-0.5-0.5s-0.5,0.2-0.5,0.5S16.7,15.5,17,15.5z M17,14.7
			c0.2,0,0.3,0.1,0.3,0.3s-0.1,0.3-0.3,0.3c-0.2,0-0.3-0.1-0.3-0.3S16.8,14.7,17,14.7z"/>
	</g>
</g>
<circle id="ryqZn8Fd36W" cx="10.8" cy="10.5" r="0.5"/>
<circle id="Sko-nUKd3a-" class="st4" cx="12.6" cy="10.5" r="0.5"/>
<circle id="Byhb28KuhTZ" class="st5" cx="14.2" cy="10.5" r="0.5"/>
<line id="B1TxnUFdhaZ_1_" class="st0" x1="33" y1="17.3" x2="29" y2="17.3"/>
<line id="HJhe38Yd36Z_1_" class="st0" x1="33" y1="21.2" x2="29" y2="21.2"/>
<g>
	<g>
		<path id="rJdb2ItdnTW_1_" d="M21.5,17.6c0,0.2,0.2,0.4,0.4,0.4h3.3c0.2,0,0.4-0.2,0.4-0.4v-3.3c0-0.2-0.2-0.4-0.4-0.4h-3.3
			c-0.2,0-0.4,0.2-0.4,0.4V17.6z M25.2,17.8h-3.3c-0.1,0-0.2-0.1-0.2-0.2V17l0.8-0.8l0.7,0.7h0.1l1.2-1.2l0.9,0.9v1
			C25.5,17.7,25.4,17.8,25.2,17.8z M21.9,14.1h3.3c0.1,0,0.2,0.1,0.2,0.2v2l-0.8-0.8h-0.1l-1.2,1.2L22.6,16h-0.1l-0.8,0.8v-2.4
			C21.7,14.2,21.8,14.1,21.9,14.1z"/>
		<path id="ryKWhLFu3pZ_1_" d="M22.8,15.5c0.3,0,0.5-0.2,0.5-0.5s-0.2-0.5-0.5-0.5s-0.5,0.2-0.5,0.5S22.5,15.5,22.8,15.5z
			 M22.8,14.7c0.2,0,0.3,0.1,0.3,0.3s-0.1,0.3-0.3,0.3c-0.2,0-0.3-0.1-0.3-0.3S22.6,14.7,22.8,14.7z"/>
	</g>
</g>
<path class="st6" d="M25.7,22H11.9c-0.1,0-0.3-0.1-0.3-0.3l0,0c0-0.1,0.1-0.3,0.3-0.3h13.9c0.1,0,0.3,0.1,0.3,0.3l0,0
	C26,21.9,25.9,22,25.7,22z"/>
<path class="st6" d="M25.7,23.4H11.9c-0.1,0-0.3-0.1-0.3-0.3l0,0c0-0.1,0.1-0.3,0.3-0.3h13.9c0.1,0,0.3,0.1,0.3,0.3l0,0
	C26,23.3,25.9,23.4,25.7,23.4z"/>
</svg>
