
<svg version="1.1" baseProfile="tiny" id="Layer_1" xmlns="http://www.w3.org/2000/svg" xmlns:xlink="http://www.w3.org/1999/xlink"
	 x="0px" y="0px" viewBox="0 0 2000 2000" width="500px" height="500px" xml:space="preserve">

<g>
	<path id="circle" fill="none" stroke="#000000" stroke-width="70" d="M1795.1,1000c-0.5,439.9-355.9,792.7-793.8,792.5c-437.5-0.2-799.8-354.4-792.9-806.8
		c6.5-431.3,356.9-786.7,806.7-780C1447.2,212.1,1795.3,562.6,1795.1,1000z M230.5,999.3c0.2,424.4,344.1,777.4,783.5,771
		c419.9-6.1,762.8-346.5,758.9-778.8c-3.8-426.4-349.2-766.5-776.7-763.6C570,230.7,230.9,575.8,230.5,999.3z"/>
	<path fill="#FDFDFD"  d="M230.5,999.3c0.3-423.5,339.4-768.6,765.7-771.5c427.4-2.9,772.8,337.3,776.7,763.6
		c3.9,432.4-339,772.7-758.9,778.8C574.6,1776.7,230.8,1423.7,230.5,999.3z M1035.6,1215.9c0.9,1.5,1.9,2.3,3.2,0.5
		c0.1-0.2-1.1-1.3-1.7-1.9c-8.9-9.9-11.3,0.2-15.8,4.9c-2.9,3,0.2,3.9,1.4,5c2.8,2.5,2.3-1.5,3.7-2.2
		C1029.7,1220.5,1029.3,1213.3,1035.6,1215.9z M881.7,1231l0.3,0.1c0.7-1.5,1.5-3.1,2.2-4.6c4.2,0.6,7.7-2.4,12.3-1.5
		c23.7,4.7,45.8,16.1,70.2,17.7c12.3,0.8,22,6.1,31.5,13c1.4,1,5,2.3,4.8,1.1c-1.2-10.8,5.6,1.4,6.6-3c-0.5-2-1.1-4.3-2.9-6.5
		c-3.6-4.3-15-4.5-10.8-11.5c2.3-3.9,8.2,6.5,14,8c3.2,0.8,6,6.6,9.6,1.3c2.8-4.1-1.2-6.5-3.9-8.3c-10.8-7.3-22.1-14.1-24.7-28.4
		c-0.3-1.7-1.4-2.5-3.1-3c-11-3.1-2.9-8.4-1.6-13.2c1.9-7,5.8-2.3,8.4-1.4c4.7,1.5,8.9,3.5,13.3-1c1.2-1.2,5.4-1.5,6.4-0.4
		c6.4,6.9,13.2,4.8,20.4,1.9c2.9-1.2,5-4.4,4.3-5.8c-1.7-3.3-3.9-6-3.3-10.1c0-0.3-3,0-3.8,1.4c-6.5,13.2-12.8-2.3-19.9-0.5
		c-3.6,0.9-0.4-7.1-2.1-12.3c-2.7,5-6.5,4.5-10.2,5.1c-1.8,0.3-2.8,5.6-5,0c-1.1-2.7-3.9-4.4,0.9-6.9c2.2-1.2,8.8-7.1-1.5-8.8
		c-3.5-0.6-1.8-6.4-0.8-6.2c8.5,2,7.5-7.6,12.5-9.5c6.5,3.3,12.9,6.8,19.4,10c4.5,2.2,4.4,5,0.6,7.2c-9.4,5.5-9.5,5.3-7.9,15.1
		c21-14.9,23.6-17,7.3-29.6c3.4-2.5,7.7,1.9,12.7-1.8c-7.2-3.4-11.8-9.3-19.9-9.3c3.3,12.6-4.6,7.3-9.9,6.3c1.4-6,2.1-11.5-5-14.9
		c-1.4-0.7-7.1,0.9-4.1-5.4c3.4-7-3-14.6-10-12.4c-17.9,5.8-27.6-9.5-41.3-14.2c6.2-3.3,8.9,2.9,13.5,3.8c1.8,0.3,4.6,0.6,5.6-0.4
		c3.1-3.1-1.9-3-2.2-4.6c-2.2-11-12.1-9.1-18.9-10c-8.1-1.1-5.3-6-5.7-9.9c-0.6-5.9,3.7-6.1,7.8-5.5c8.5,1.1,16.9,2.7,25.5,3.6
		c7.2,0.8,13.4,2.2,13.9,14.6c7-16.2,17.5-13.4,28-11.9c11.3,1.6,22,5,33.1,7.2c13.5,2.7,27.3,3.8,44.1,6
		c-6.6-7.1-12.3-9.3-17.4-12.4c-14.8-9.1-31.5-14.6-46-24.3c-4.9-3.2-8.2-7.3-5.8-12.3c4.3-9.1-1.8-12.2-8.1-15.9
		c1.8-0.9,2.9-1.2,3.8-1.9c11.6-9.5,15.5-9,25.1,3.1c7.1,9,16.5,8.8,24.1-0.4c4.5-5.4,19.7-4.1,22.9,2c5.7,10.7,5.7,10.7,16,5.5
		c-2.1-4.5-9.2-1-10.7-6.6c4.2-2,8.1,2.9,12.2,0.5c-0.2-0.7-0.2-1.3-0.5-1.4c-26.5-15.7-56.1-23.7-85.1-32.7
		c-8.5-2.7-11.8-3.5-12-12.3c0-0.7-1.3-2.2-1.8-2.1c-9.4,1.3-15.9-1.7-18.5-11.5c-0.2-0.6-3.3-2.1-6.1-1.7
		c-3.6,0.6-7.7-0.3-11.3-1.6c-3.4-1.2-8.6-1.4-9.1-5.9c-0.4-4,6.2-2.4,7-6.1c-1-3.8-9.1-2.7-6.4-7.9c3.1-6.1,8.9,2.7,14.9-1.9
		c-7.1-4-13.3-7.9-19.9-10.9c-4.3-2-9.4-8.5-9.7-8.2c-5.5,7.4-11.2-1.3-16.7,0.4c-2,0.6-6.3-0.1-6-3.4c0.2-2.7,3.5-3.6,6.4-3.1
		c9.3,1.6,18.8,4.5,25.6-5.8c1-1.6,6.3,0.3,4.8-4.3c-0.8-2.4-3.3-6.4-4.5-6.2c-9,1.3-13.6-7.7-21.8-8.6c-6.8-0.8-12.1-5.8-17.2-10.3
		l-0.1-0.1c8.6-0.1,16.6,2.2,24.5,5.6c8.2,3.5,16.5,7,25.6,7.3c1.8,0.1,4.1,0.3,4.8-2c0.3-0.9,0-2.8-0.6-3.1
		c-9.6-4.4-15.6-17.5-25.5-17.2c-18.2,0.6-29.3-11.7-46.1-18.1c10.8-3.6,16.9-13.6,28.6-6.6c-11.1-13.5-11.1-14.9-0.5-18.9L931,820
		c8.2,7,10.7,16.3,11,26.7c0.1,3.1,2.7,5.9,6.6,4.6c5.9-2,11.9-0.9,17.7-0.3c6.2,0.6,0-4.4,3.5-6.1c3.7-1.7-0.7-2.8-2.4-3.7
		c-2.5-1.4-6.1-1-7.6-4.2c3.3-6.7,9.5-0.2,13.9-3.3c-4.8-3.4-12.3-2.4-14.3-9.5c2.1-3.4,7.2,1.3,7.3-2.3
		c-3.9-8.1-2.3-19.6-13.5-22.9c5.3-4.7,9.7,2.4,14.6-1.3c-4.2-5.6-11.3-6.1-16.6-9.5c-2.6-1.7-4.9-3.5-3.9-5.9c1.2-3,4,0.5,6,0.2
		c3.4-0.6,9.5,4.4,9.7-1c0.2-4.6-0.8-12.2-7.2-14.6c-10-3.7-20.8-5.7-30.5-10.1c-15.7-7.1-35.6,0.6-48.9-14.2
		c1.2-3.9,6.2,0.5,7.4-3.2c-6.6-3-13.3-5.9-21.1-9.5c7.1-3.3,13.2,0.8,18.4-2.5c6.2,3.1,12.7,2.6,21.3,3.5c-6.6-7.9-14-2.7-19.3-5.8
		c-7.1-0.8-0.7-7.5-4.6-10.2c-3.7-2.5-1.3-6.8,0.2-9.3c1.7-2.8,4.6-0.4,7.2,0.2c3.9,0.9,8.1,0.1,12.1,0.4c1.7,0.1,3.4,0.3,3.6-1.4
		c0.1-1.2-1.2-3.5-2.1-3.6c-12.4-1.1-21.9-11.3-35.3-10.6c23.7-21.7,52.1-7.5,77.8-12.2c-6.3-2.1-12.5-3.3-18.8-4.1
		c-2.2-0.3-3.4-1.5-4.8-2.9c-0.2-0.2-0.6-0.2-0.9-0.2c2.4-0.8,5.7,0.7,6.7-3.6c1-4,5.3-1.8,7.8-3.1c1.7-0.9,2.8-3.3,3.8-5.3
		c0.2-0.5-1.4-2.6-1.7-2.5c-6.5,2.2-9.4-4-14.1-5.8c-16.8-6.4-33.4-13.5-53.2-17.4c18.8-8.2,35.8,2.6,52.6-1.9
		c-15.9-6.9-32.9-6.5-49.4-8.8c1.1-1.5,2.2-1.7,3.1-2.3c2.7-1.8,7.6-2.3,6.3-6.9c-1.3-4.7-5.1-1.1-7.8-1.1
		c-4.1,0.1-7.9-0.8-11.7-3.2c14.7-5.3,29.7,3.6,46-3.6c-7.4-3-12.6-5.2-17.9-7.3c1.9-0.7,3.7-1.4,5.4-2.1c-5.2-9.3-15.4-4.2-22-7.8
		c3.3-9.3,12-8.6,19.9-9.7c3-0.4,6.3,1,9-1.2c1-0.9,0.8-1.9-0.6-2.4c-0.2,0-0.4,0.1-0.5,0.1c0.7,0.2,1.6,0.8,1.9,0.5
		c3.7-3.1,10.1,3,13.1-4.1c-3.9-1.6-8.6-1-11.5-4.5c-4.9-5.9-11.1-9.4-18.8-10.4c-2.8-0.4-7.2,0.7-7.3-3.7c0-4.2,5.6-1,7.7-5.4
		c-23.5-3.6-46.5-2.7-69.6,0c-2.3,0.3-4.4,1.8-2.9,3.4c3.3,3.3-4,8.9,2.9,10.8c2.2,0.6,5.9-1.4,5.9,3.3c0,5.2-4.9,3.8-7.4,5.2
		c-2.7,1.5-9,1.2-6.9,5.1c3.5,6.6-2.1,5.7-4.3,6.6c-2.8,1.1-6.1,1.2-9.2,1.1c-6.5-0.2-4.4,6.1-6.9,9c-2.5,2.8,0.1,5.4,3.3,7.2
		c5.2,2.9,11.9,3.5,15.5,9.1c-1.4,3.9-7,0.5-8.7,6.3c14.1,4.4,29.5-2.7,45.9,4.3c-6.2,1.1-9.4,1.6-13.6,2.4c4,2.8,4,3,2.1,4.9
		c-1.1,1.1-2.2,2.3-2.7,3.7c-2.1,5.8-2,5.7-8.4,4.9c-22.6-3-43.8-2.7-55,22.4c-0.1,0.3-0.6,0.5-0.8,0.9c-2.7,4.1,0.1,49.8,3.7,53.1
		c5.2,4.7,8.9,9.9,10,17c-29.6,2.4-58.8,4.9-79.5,30.8c-3.6,4.5-4.8,5.7-0.2,9.5c1.3,1.1,4.7,4.5,1.1,7.6c-6.1,5.3-5.8,5.6-0.2,9.8
		c1.7,1.2,8.3-1.7,5.2,5.1c-1.2,2.7,0,6.6,3.7,7.2c4.6,0.7,2.1-6.4,6.3-6.7c-5.2-11.7,6.3-9.9,10.4-10.6c7.9-1.4,15.8-2.1,23.5-5
		c3.7-1.4,7.8-2.2,7.8,4.2c0,1.8-11.1,27.1-12.7,27.7c-0.6,0.2-1.6,0.3-2.1-0.1c-14.4-10-23.6,11.6-37.3,6.3c-0.3-0.1-2,3-2.8,4.7
		c-2.7,6.5-0.7,12,3.4,17.3c1.5,2,4.4,3.2,0.8,7.7c-6.1,7.6-14.4,13.7-17.6,23.9c-1.7,5.2-2.6,7.9,3.4,9.1c2,0.4,3.8,0.9,4.8,2.8
		c0.1,0.1-0.9,1-1.5,1.2c-7.1,2.6-1.7,6,0,8.1c6.9,8.8,16.9,9,26.7,7.8c5.6-0.7,11-1.8,16.4-1c-7.3,10.2-18.2,15.1-29.3,21.4
		c13.3,8.2,13.2,14.9-4.9,20.3c7,0.5,10.1,0.7,16,1.1c-11.9,5.5-22.3,7.7-31.1,15.5c6.1,0.4,11.1,0.7,16,1.1
		c-7.3,1.2-9.9,7.4-12.2,12.2c-1.9,4,5.7,1.7,6.7,5.2c-4.2,1-5.1,3-2.8,6c6,7.6,5.3,12.1-5.4,12.7c-2.2,0.1-4,1.9-3.8,4.9
		c9.4,0.5,18.4,2.2,26.8,6.8c-11-0.5-22.1-1-34.2-1.5c3.5,6.9,9.8,3.9,13.1,7.8c-4.8,6.7-12.6,0.8-19.5,5.1c11.4,1.6,0.1,9.4,5.1,13
		c-6.7,0.8-13.3,1.5-20.2,2.3c2.9,6,10.9,6.9,13.2,14.4c-8.9-1.5-14,4.8-20.7,7c-13.3,4.4-26,10.8-32,23.5
		c-6.6,14-21.5,19.9-28.6,33.5c-4.3,8.1-13.9,13.4-21,20c-2.5,2.3-4.4,5-1.6,8c2.8,3,4.9-0.6,7.1-1.6c5.9-2.6,9-10.3,18.9-10
		c-5.5,8.6-17.4,10.5-17.1,22.9c18.7-1,30-25,50.8-16.2c17-9.7,35.5-15.7,54.3-20.1c19.5-4.6,39.3-8.7,61.6-9.6
		c-4.6,5-7.5,9-12.3,7.7c-8.1-2.2-14.4,1.9-21.4,4.1c-3.3,1-8.2,0.3-8.5,4.6c-0.3,5.7,6.1,1.4,8.2,4.4c-4.9,5.7-13.2,5.3-19.1,9.5
		c-4.6,0.4-9,1.1-12.5,6c6.2,2.1,10.1-1,14.1-3.6c4.6-2.2,3.8,6.6,8.7,4.2c-18.4,7.1-34.7,17.8-51.3,28.8
		c49-24.9,101.5-28.5,154.9-29c-5.3,3-6.9,10-14.1,10.7c-45.6,4.4-81.5,27.5-111.7,60.1c-12.7,13.7-19.4,30.3-18.4,50.1
		c0.8,16.6,9,30.2,13.5,45.2c1.3,4.3,4.2,2.8,6.4,1.6c10.5-5.7,21.6-9.7,31.9-16.1c29.4-18.3,60.9-30.9,96.7-28.2
		c0,26.2-0.5,52.4,0.2,78.6c0.3,9.7-2.7,11.4-11.6,10.6c-42.5-3.8-85.1-4.4-127.5,2c-57.8,8.8-110.7,27.9-151.6,72.2
		c3.4,2.3,6-0.3,8.7-1.6c70.9-33.4,145.6-36.9,222.1-29.4c52.5,5.1,104.2,15.7,156.9,18.6c67.7,3.7,135.2,3.6,201.5-12.9
		c67.9-16.9,127.1-48.9,171.3-104.7c13.1-16.5,24.7-34.2,38.1-50.4c14.9-17.9,33.7-28.2,58.2-26.1c12.9,1.1,23.4-4.9,30.6-16
		c6.7-10.5,13.5-21,20.2-31.5c3.6-5.6,7.5-10.9,14.4-13c20.3-6,33-21.1,35.3-41.9c0.7-6.5,0.6-13-6.8-15.8
		c-7.1-2.6-12.1,1.1-15.5,7.1c-2.2,3.9-4.6,7.5-9.4,7.9c-12.4,1-21.4,8-27.1,18.1c-9.4,16.5-22.5,24.4-41.5,22.4
		c-2.2-0.2-4.6,0.8-6.8,1.5c-27.7,7.9-49.3,24.7-67.4,46.4c-18.3,21.8-33.5,46-53.2,66.8c-40.3,42.6-86.5,74.9-145.2,86.2
		c-66.1,12.8-132.7,15-199.6,9c-6.2-0.6-13.6,1.7-18.8-4.2c0.3-5,1-10,1-15.1c0.1-22.6,0.3-45.2-0.1-67.8
		c-0.1-9.4,1.4-13.9,12.5-10.5c7.9,2.4,15.1,6.1,22.7,8.8c2.5,0.9,5.8,4.3,7.6-0.4c1.6-4-2.9-4-4.9-5c-10.3-4.9-20.8-9.4-31.7-14.3
		c6.4-6.1,14.6,4.1,21.9-3.2c-9.8-3.7-18.7-7-28.4-10.7c3.4-3.1,4.7-1.9,5.9-1.2c5,2.9,6.5-1.9,7.2-4.3c1.2-3.9-3.6-2.3-5.4-3.6
		c-1.7-1.2-4.5-0.9-6.8-1.2C883.2,1232.5,882.5,1231.8,881.7,1231z M1093.9,1192.7c-16.7-5.5-23.3,8.2-32.7,17.9
		c6.1,0.1,6.7,9.8,12.4,8.5c9.9-2.4,15.6,6.6,24.7,7.5c6.6,0.6,10.6-2.6,15.1-4c5.8-1.7-0.2-6.7-1.6-11.3c4.4,2.3,8.4,5.2,11.7-0.8
		c-2.4-0.9-5.3-1.2-6.6-2.8c-5.2-6.2-17.4-8.4-15.7-17.7c1.2-6.3-0.9-6.3-4.2-9.2c-6.1-5.4-11.2-10.7-20.1-5.3
		c-0.9,0.5-4.1-2.7-5.5-3.7c1.8-5,15.3-0.2,8.6-9.5c-8.4-11.8-22.2-18-35.5-24.1c1.6,1.8,3.4,3.2,4.3,5c-3.2,2.8-6.2-2.9-10.4,0.3
		c7.3,4.7,14.5,8.9,21.1,13.8c5.6,4.1,5.4,9.8,0,12.8c-3.4,1.9-2.4,4.9-1.9,7.1c0.9,4.6,3.2,2.3,5.7,0.8c3.2-1.9,6.9-2.3,6.4,3.2
		c-0.1,0.7-4.7,2.1-2.2,4.4c2,1.8,5.1,0.4,6.8-2.1c0.8-1.2,2.4-3.5,2.5-3.1c2.4,8.7,15.8,2.4,16.8,12.5L1093.9,1192.7z
		 M1191.3,1241.2c-2.6,6-7.8,9.4-12.8,12.9c-11.5,8-23.3,15.7-34.6,24c-6.1,4.5-12.2,10.3-7.8,18.6c4.2,7.8,11.9,5.8,18.8,3.7
		c8.6-2.6,16.9-6.1,25.6-8c21.5-4.8,34.4-18.8,42.6-38.1c3.8-8.9,7.8-17.9,10.2-27.2c4-15.8,8.8-31.7,3.5-48.3
		c-3.9-12.2-12-20.2-24.7-22.1c-11.1-1.7-18.1,5.4-23.7,13.9c-8.1,12.4-14.6,25.5-18.6,40c-2.9,10.4,1,17.5,8.4,23.4
		C1181.9,1237,1186.7,1238.7,1191.3,1241.2z M1050.4,1226.3c-3.5-1.1-6.3-2.4-9.1-2.5c-1.3,0-2.7,2.3-4.1,3.6c1.1,1,2,2.7,3.2,2.8
		c15.8,1.8,27.6,13.3,42.7,16.9c12.8,3,25.5,6.6,38.5,6.8c-7.5-3.4-11.6-13.7-23-11c3.4-3.1,8.7-5.7,2.1-8.4
		c-13.1-5.3-26.3-10.7-40-13.9c-6.1-1.4-12.5-6-19.6-3.5C1041.8,1223.2,1047.9,1221.3,1050.4,1226.3z M958.2,711.4
		c-7.6-5.7-10.4,0.5-17.2,5.8C948.8,714.6,953.8,714.7,958.2,711.4z M1043.4,1188.9c-3.4,7.4-9,11.5-5.3,18.3
		c0.8,1.4,2.4,0.7,3.9-0.3C1048.7,1202,1044.3,1196.7,1043.4,1188.9z M668.5,1141.1c2.6,1.6,5.1,1.8,7.1-0.7c0.5-0.6,1.6-2,0-2.8
		C672.4,1136.1,670.7,1137.9,668.5,1141.1z"/>
	<path id="sarv" fill="#0F5F3C" d="M880.9,727.6c-5.2,3.4-11.4-0.8-18.4,2.5c7.9,3.5,14.5,6.5,21.1,9.5c-1.2,3.7-6.2-0.6-7.4,3.2
		c13.3,14.8,33.2,7,48.9,14.2c9.7,4.4,20.5,6.4,30.5,10.1c6.4,2.4,7.4,9.9,7.2,14.6c-0.3,5.4-6.3,0.4-9.7,1c-2,0.3-4.8-3.2-6-0.2
		c-0.9,2.3,1.3,4.2,3.9,5.9c5.3,3.4,12.4,3.9,16.6,9.5c-4.9,3.7-9.3-3.4-14.6,1.3c11.2,3.3,9.6,14.8,13.5,22.9
		c-0.1,3.6-5.2-1.1-7.3,2.3c1.9,7.1,9.5,6.1,14.3,9.5c-4.5,3.1-10.6-3.4-13.9,3.3c1.5,3.2,5.1,2.8,7.6,4.2c1.7,0.9,6.1,2,2.4,3.7
		c-3.5,1.6,2.7,6.7-3.5,6.1c-5.8-0.6-11.8-1.6-17.7,0.3c-3.9,1.3-6.5-1.5-6.6-4.6c-0.3-10.4-2.8-19.6-11-26.7c2.5-0.1,5.1-0.2,8-0.4
		c-2.2-5.1-5.9-10-10.2-7.6c-6.4,3.4,4.4,4.6,2.5,8.3c-10.6,4-10.6,5.4,0.5,18.9c-11.7-7-17.8,2.9-28.6,6.6
		c16.8,6.5,27.9,18.7,46.1,18.1c9.8-0.3,15.9,12.8,25.5,17.2c0.6,0.3,0.9,2.1,0.6,3.1c-0.7,2.4-3,2.1-4.8,2
		c-9.1-0.3-17.4-3.8-25.6-7.3c-7.9-3.4-15.9-5.7-24.5-5.6c-0.8,0-1.7-0.1-2.5-0.1c0.9,0.1,1.7,0.1,2.6,0.2
		c5.1,4.5,10.4,9.5,17.2,10.3c8.2,0.9,12.7,9.9,21.8,8.6c1.2-0.2,3.8,3.8,4.5,6.2c1.5,4.5-3.8,2.7-4.8,4.3
		c-6.8,10.3-16.3,7.4-25.6,5.8c-2.9-0.5-6.2,0.3-6.4,3.1c-0.2,3.3,4.1,4.1,6,3.4c5.5-1.7,11.2,7,16.7-0.4c0.2-0.3,5.3,6.2,9.7,8.2
		c6.6,3,12.8,7,19.9,10.9c-6,4.6-11.7-4.2-14.9,1.9c-2.7,5.2,5.4,4.1,6.4,7.9c-0.9,3.7-7.5,2.1-7,6.1c0.5,4.5,5.7,4.7,9.1,5.9
		c3.5,1.2,7.7,2.2,11.3,1.6c2.8-0.5,6,1,6.1,1.7c2.6,9.9,9.1,12.8,18.5,11.5c0.5-0.1,1.8,1.3,1.8,2.1c0.2,8.8,3.5,9.6,12,12.3
		c29.1,9,58.6,17,85.1,32.7c0.3,0.1,0.3,0.7,0.5,1.4c-4.1,2.4-8-2.5-12.2-0.5c1.5,5.6,8.7,2.1,10.7,6.6c-10.3,5.2-10.3,5.2-16-5.5
		c-3.2-6.1-18.4-7.5-22.9-2c-7.6,9.2-17.1,9.3-24.1,0.4c-9.6-12.1-13.5-12.6-25.1-3.1c-0.9,0.7-2,1-3.8,1.9
		c6.3,3.7,12.4,6.9,8.1,15.9c-2.4,5,0.9,9.1,5.8,12.3c14.5,9.7,31.2,15.2,46,24.3c5.1,3.2,10.9,5.4,17.4,12.4
		c-16.7-2.2-30.6-3.3-44.1-6c-11-2.2-21.8-5.7-33.1-7.2c-10.5-1.5-21-4.2-28,11.9c-0.5-12.4-6.7-13.9-13.9-14.6
		c-8.5-0.9-17-2.5-25.5-3.6c-4.1-0.5-8.3-0.4-7.8,5.5c0.4,3.9-2.4,8.8,5.7,9.9c6.8,0.9,16.6-1,18.9,10c0.3,1.6,5.4,1.6,2.2,4.6
		c-1,1-3.8,0.8-5.6,0.4c-4.6-0.9-7.3-7.2-13.5-3.8c13.7,4.7,23.3,20,41.3,14.2c7.1-2.3,13.4,5.4,10,12.4c-3,6.3,2.6,4.7,4.1,5.4
		c7.1,3.4,6.4,9,5,14.9c-0.8,0.7-1.6,1.4-2.3,2.1c-5,1.9-4,11.5-12.5,9.5c-1-0.2-2.7,5.6,0.8,6.2c10.3,1.7,3.7,7.6,1.5,8.8
		c-4.8,2.6-2,4.2-0.9,6.9c2.2,5.7,3.2,0.3,5,0c3.7-0.6,7.5-0.1,10.2-5.1c1.7,5.3-1.5,13.2,2.1,12.3c7.1-1.8,13.4,13.8,19.9,0.5
		c0.7-1.4,3.8-1.7,3.8-1.4c-0.6,4,1.6,6.8,3.3,10.1c0.7,1.3-1.3,4.6-4.3,5.8c-7.2,2.9-14,5-20.4-1.9c-1-1-5.2-0.8-6.4,0.4
		c-4.4,4.5-8.6,2.5-13.3,1c-2.6-0.8-6.5-5.6-8.4,1.4c-1.3,4.8-9.4,10.1,1.6,13.2c1.7,0.5,2.8,1.3,3.1,3
		c2.6,14.4,13.9,21.1,24.7,28.4c2.7,1.8,6.7,4.2,3.9,8.3c-3.6,5.3-6.4-0.5-9.6-1.3c-5.8-1.4-11.6-11.9-14-8
		c-4.2,7,7.2,7.2,10.8,11.5c1.9,2.2,2.4,4.5,2.9,6.5c-1,4.4-7.8-7.8-6.6,3c0.1,1.1-3.4-0.1-4.8-1.1c-9.5-6.9-19.2-12.2-31.5-13
		c-24.4-1.6-46.5-13-70.2-17.7c-4.7-0.9-8.1,2.1-12.3,1.5c-10.8-3.2-21.8-4.5-33-4.6c-2.2,0-5.3-0.6-5.8,2.4
		c-0.5,3.6,2.6,4.4,5.4,4.6c10.4,0.8,20.8,1.5,31.2,2.3l-0.3-0.1c0.7,0.8,1.4,1.5,2.2,2.3c2.3,0.3,5.1,0,6.8,1.2
		c1.9,1.3,6.6-0.3,5.4,3.6c-0.7,2.4-2.2,7.2-7.2,4.3c-1.3-0.7-2.6-2-5.9,1.2c9.7,3.6,18.6,7,28.4,10.7c-7.3,7.3-15.5-2.9-21.9,3.2
		c10.9,4.9,21.4,9.4,31.7,14.3c2,0.9,6.5,1,4.9,5c-1.9,4.7-5.1,1.3-7.6,0.4c-7.7-2.7-14.8-6.4-22.7-8.8
		c-11.1-3.3-12.7,1.2-12.5,10.5c0.4,22.6,0.2,45.2,0.1,67.8c0,5-0.6,10-1,15.1c0-32,0-63.9,0-94.4c-26-7.3-50.8-6.1-75.5-5.5
		c-35.7-2.7-67.3,9.9-96.7,28.2c-10.3,6.4-21.4,10.4-31.9,16.1c-2.2,1.2-5.1,2.7-6.4-1.6c-4.5-15.1-12.7-28.7-13.5-45.2
		c-0.9-19.9,5.7-36.4,18.4-50.1c30.2-32.7,66.1-55.7,111.7-60.1c7.1-0.7,8.7-7.7,14.1-10.7c-53.4,0.5-105.9,4.1-154.9,29
		c16.7-11,33-21.7,51.3-28.8c-4.9,2.3-4.1-6.5-8.7-4.2c-0.5-0.8-1-1.6-1.5-2.4c5.9-4.2,14.2-3.8,19.1-9.5c-2.1-3-8.5,1.3-8.2-4.4
		c0.2-4.3,5.2-3.6,8.5-4.6c7-2.2,13.4-6.3,21.4-4.1c4.8,1.3,7.8-2.7,12.3-7.7c-22.4,0.9-42.1,5-61.6,9.6
		c-18.8,4.4-37.3,10.4-54.3,20.1c-20.9-8.8-32.1,15.2-50.8,16.2c-0.3-12.3,11.6-14.2,17.1-22.9c-9.9-0.3-13,7.4-18.9,10
		c-2.2,0.9-4.3,4.6-7.1,1.6s-0.8-5.8,1.6-8c7.2-6.6,16.8-11.9,21-20c7.1-13.6,22-19.5,28.6-33.5c6-12.7,18.7-19.1,32-23.5
		c6.7-2.2,11.8-8.6,20.7-7c-2.3-7.5-10.2-8.4-13.2-14.4c6.8-0.8,13.5-1.6,20.2-2.3c-5.1-3.6,6.2-11.3-5.1-13
		c7-4.3,14.7,1.6,19.5-5.1c-3.2-4-9.6-0.9-13.1-7.8c12.1,0.5,23.2,1,34.2,1.5c-8.4-4.6-17.5-6.2-26.8-6.8c-0.2-3,1.5-4.8,3.8-4.9
		c10.7-0.7,11.4-5.2,5.4-12.7c-2.3-2.9-1.4-5,2.8-6c-1-3.6-8.7-1.2-6.7-5.2c2.3-4.8,4.9-11,12.2-12.2c-5-0.3-9.9-0.7-16-1.1
		c8.8-7.8,19.3-10,31.1-15.5c-5.9-0.4-9-0.6-16-1.1c18.1-5.3,18.2-12,4.9-20.3c11.1-6.3,22-11.2,29.3-21.4c-5.4-0.8-10.8,0.3-16.4,1
		c-9.8,1.2-19.8,1.1-26.7-7.8c-1.7-2.1-7.1-5.5,0-8.1c0.6-0.2,1.6-1.1,1.5-1.2c-1-1.9-2.8-2.4-4.8-2.8c-6.1-1.2-5.1-3.9-3.4-9.1
		c3.2-10.2,11.5-16.3,17.6-23.9c3.7-4.5,0.8-5.7-0.8-7.7c-4.1-5.3-6.1-10.8-3.4-17.3c0.7-1.7,2.5-4.8,2.8-4.7
		c13.7,5.2,22.9-16.4,37.3-6.3c0.5,0.4,1.5,0.3,2.1,0.1c1.6-0.6,12.7-25.9,12.7-27.7c-0.1-6.3-4.2-5.5-7.8-4.2
		c-7.6,2.9-15.5,3.7-23.5,5c-4.1,0.7-15.6-1.1-10.4,10.6c-4.2,0.3-1.7,7.4-6.3,6.7c-3.7-0.6-4.9-4.5-3.7-7.2c3-6.8-3.6-3.9-5.2-5.1
		c-5.6-4.2-5.9-4.5,0.2-9.8c3.6-3.1,0.2-6.5-1.1-7.6c-4.6-3.8-3.4-5,0.2-9.5c20.7-25.9,49.9-28.3,79.5-30.8c-1.1-7.1-4.8-12.4-10-17
		c-3.6-3.2-6.4-49-3.7-53.1c0.2-0.3,0.6-0.5,0.8-0.9c11.1-25.2,32.4-25.4,55-22.4c6.4,0.9,6.3,0.9,8.4-4.9c0.5-1.4,1.6-2.6,2.7-3.7
		c1.9-1.9,1.9-2.1-2.1-4.9c4.1-0.7,7.4-1.3,13.6-2.4c-16.4-7.1-31.8,0.1-45.9-4.3c1.7-5.8,7.3-2.4,8.7-6.3
		c-3.6-5.6-10.3-6.2-15.5-9.1c-3.2-1.8-5.8-4.3-3.3-7.2s0.4-9.2,6.9-9c3.1,0.1,6.4,0.1,9.2-1.1c2.2-0.9,7.8,0,4.3-6.6
		c-2.1-3.9,4.2-3.6,6.9-5.1c2.6-1.5,7.5,0,7.4-5.2c0-4.7-3.7-2.6-5.9-3.3c-6.8-1.9,0.4-7.5-2.9-10.8c-1.6-1.6,0.5-3.2,2.9-3.4
		c23-2.8,46-3.6,69.6,0c-2.2,4.4-7.8,1.2-7.7,5.4c0,4.4,4.5,3.4,7.3,3.7c7.7,1,13.9,4.6,18.8,10.4c3,3.5,7.6,3,11.5,4.5
		c-2.9,7-9.3,1-13.1,4.1c-0.3,0.2-1.3-0.3-1.9-0.5c0.2,0,0.4-0.1,0.5-0.1c1.5,0.5,1.7,1.5,0.6,2.4c-2.7,2.2-6,0.8-9,1.2
		c-7.8,1.1-16.6,0.4-19.9,9.7c6.6,3.6,16.8-1.4,22,7.8c-1.8,0.7-3.5,1.4-5.4,2.1c5.3,2.2,10.5,4.3,17.9,7.3
		c-16.3,7.3-31.2-1.7-46,3.6c3.8,2.4,7.6,3.3,11.7,3.2c2.7,0,6.5-3.7,7.8,1.1c1.3,4.6-3.6,5.1-6.3,6.9c-0.9,0.6-2,0.8-3.1,2.3
		c16.5,2.3,33.4,1.9,49.4,8.8c-16.9,4.5-33.9-6.3-52.6,1.9c19.8,3.9,36.4,10.9,53.2,17.4c4.7,1.8,7.6,8,14.1,5.8
		c0.3-0.1,2,2,1.7,2.5c-1,1.9-2,4.4-3.8,5.3c-2.5,1.2-6.8-0.9-7.8,3.1c-1,4.3-4.3,2.8-6.7,3.6c0.3,0.1,0.7,0,0.9,0.2
		c1.4,1.3,2.6,2.6,4.8,2.9c6.3,0.8,12.6,2,18.8,4.1c-25.7,4.7-54.2-9.5-77.8,12.2c13.4-0.7,22.9,9.5,35.3,10.6
		c0.9,0.1,2.2,2.4,2.1,3.6c-0.2,1.8-1.9,1.6-3.6,1.4c-4-0.3-8.2,0.5-12.1-0.4c-2.6-0.6-5.6-3-7.2-0.2c-1.5,2.6-3.9,6.8-0.2,9.3
		c3.9,2.7-2.5,9.4,4.6,10.2C882.2,726,881.5,726.8,880.9,727.6z M795.6,875.6c-14.5-9.6-43-3.7-60.6,14.3
		C754.8,883.4,777.8,892.7,795.6,875.6z M913.9,783.4c-17.5-5-32.8-10.2-48.5-13.3c-3.5-0.7-7.8,7.1-13.8,7.2c0,0.8,0,1.6,0.1,2.3
		c1.3,5.5,11.3,10.3,15.9,7c11.1-8,22.6-8.1,34.8-3.4C905.3,784.3,908,785.9,913.9,783.4z M758.1,737.2c11.2,13.5,17.9-5,27.9-2.7
		C776.2,732,766.7,731.8,758.1,737.2z M859.1,761c9.3,2.9,17.5,5.3,25.4,8c4,1.3,4.1-0.4,4.8-3.7c0.7-3.1,1.5-3.6-2.6-4.8
		C878,757.9,869.8,755.2,859.1,761z M958.4,1181.2c4.8,4.4,11,5.9,16.8,8c1.4,0.5,4.1,0.8,4.5-2.1c0.1-1.1-0.3-2.2-0.4-3.4
		C971.6,1188.6,966.2,1175,958.4,1181.2z M964.6,1146.1c3.3,0.7,6.3,1,9.2,1.9c3.6,1.1,5.8-0.9,7.7-3.1c0.8-1,1.4-3.3,0.8-4.2
		c-2.1-3.2-5.5-1.1-8.3-1.4C969.4,1138.9,966.5,1141.7,964.6,1146.1z M871.7,876.5c7.6,8.9,8.1,9.1,17.5,8
		C882.6,881.5,877.1,879,871.7,876.5z M955,1114.1c7.4-1.9,13.9-0.2,20.3-0.5C968.8,1110.5,962.4,1104.6,955,1114.1z M985.1,1138.2
		c5.5-1.9,6.6,8.1,12.7,3.6c0.8-0.6,1.1-3.3,0.5-4.1C994.3,1133.2,989.9,1134.5,985.1,1138.2z M876,797.7c-4-3.2-8.5-4.8-14.2-4.5
		C865,801.9,871,798.1,876,797.7z M819.7,558.9c-0.7-0.3-1.3-0.8-1.9-0.9c-0.7,0-1.4,0.4-2,0.6c0.6,0.3,1.3,0.8,1.9,0.8
		C818.3,559.5,819,559.1,819.7,558.9z M854.3,605.8c-0.1-0.1-0.2-0.4-0.3-0.4c-0.3,0-0.6,0.1-1,0.1c0.1,0.1,0.2,0.4,0.3,0.4
		C853.6,605.9,853.9,605.8,854.3,605.8z"/>
	<path fill="#151414" d="M806.7,1262c24.7-0.6,49.5-1.8,75.5,5.5c0,30.4,0,62.4,0,94.4c5.2,5.8,12.6,3.6,18.8,4.2
		c66.9,6.1,133.5,3.8,199.6-9c58.7-11.4,104.9-43.6,145.2-86.2c19.7-20.8,34.9-45,53.2-66.8c18.1-21.7,39.7-38.5,67.4-46.4
		c2.2-0.6,4.6-1.7,6.8-1.5c19,2,32.2-5.9,41.5-22.4c5.7-10.1,14.7-17,27.1-18.1c4.8-0.4,7.2-4,9.4-7.9c3.4-6,8.4-9.7,15.5-7.1
		c7.4,2.7,7.5,9.3,6.8,15.8c-2.3,20.8-14.9,35.9-35.3,41.9c-6.9,2.1-10.8,7.4-14.4,13c-6.7,10.5-13.5,21-20.2,31.5
		c-7.2,11.1-17.7,17.1-30.6,16c-24.6-2.1-43.3,8.2-58.2,26.1c-13.4,16.2-25.1,33.9-38.1,50.4c-44.2,55.9-103.4,87.8-171.3,104.7
		c-66.3,16.5-133.8,16.6-201.5,12.9c-52.7-2.9-104.5-13.4-156.9-18.6c-76.5-7.5-151.2-4-222.1,29.4c-2.6,1.2-5.2,3.9-8.7,1.6
		c40.9-44.3,93.7-63.4,151.6-72.2c42.4-6.5,85-5.8,127.5-2c9,0.8,11.9-0.9,11.6-10.6C806.1,1314.4,806.7,1288.2,806.7,1262z"/>
	<path fill="#151414" d="M1191.3,1241.2c-4.5-2.5-9.4-4.2-13.2-7.3c-7.4-5.9-11.3-13-8.4-23.4c4-14.5,10.5-27.6,18.6-40
		c5.6-8.5,12.6-15.6,23.7-13.9c12.7,1.9,20.8,9.9,24.7,22.1c5.3,16.5,0.6,32.5-3.5,48.3c-2.4,9.3-6.4,18.3-10.2,27.2
		c-8.2,19.3-21.1,33.3-42.6,38.1c-8.7,1.9-17,5.4-25.6,8c-6.9,2.1-14.6,4.2-18.8-3.7c-4.4-8.3,1.6-14.1,7.8-18.6
		c11.3-8.2,23.1-16,34.6-24C1183.5,1250.6,1188.7,1247.2,1191.3,1241.2z"/>
	<path fill="#0F5F3C" d="M1093.9,1192.8c-1-10.1-14.4-3.9-16.8-12.5c-0.1-0.4-1.7,1.9-2.5,3.1c-1.6,2.5-4.8,3.9-6.8,2.1
		c-2.5-2.3,2.1-3.7,2.2-4.4c0.5-5.5-3.2-5-6.4-3.2c-2.5,1.5-4.8,3.8-5.7-0.8c-0.4-2.3-1.5-5.3,1.9-7.1c5.4-3,5.6-8.7,0-12.8
		c-6.7-4.9-13.9-9.1-21.1-13.8c4.2-3.1,7.2,2.5,10.4-0.3c-0.9-1.8-2.6-3.2-4.3-5c13.3,6.1,27.1,12.3,35.5,24.1
		c6.7,9.3-6.8,4.5-8.6,9.5c1.4,1,4.6,4.3,5.5,3.7c8.9-5.3,14,0,20.1,5.3c3.3,2.9,5.3,2.9,4.2,9.2c-1.7,9.3,10.5,11.5,15.7,17.7
		c1.3,1.6,4.2,1.8,6.6,2.8c-3.2,5.9-7.3,3.1-11.7,0.8c1.4,4.6,7.3,9.6,1.6,11.3c-4.6,1.4-8.6,4.6-15.1,4c-9.1-0.9-14.7-9.8-24.7-7.5
		c-5.8,1.4-6.3-8.4-12.4-8.5c9.3-9.8,16-23.4,32.7-17.9c-0.2,0.7-0.4,1.3-0.7,2c1.2,0.1,1.3-0.1,0.3-0.9
		C1093.5,1193.7,1093.8,1193.1,1093.9,1192.8z"/>
	<path fill="#0F5F3C" d="M1050.4,1226.3c-2.5-5-8.7-3.2-9.3-9.2c7.1-2.6,13.5,2,19.6,3.5c13.7,3.3,26.9,8.6,40,13.9
		c6.6,2.7,1.4,5.3-2.1,8.4c11.4-2.7,15.5,7.6,23,11c-13-0.2-25.7-3.7-38.5-6.8c-15-3.6-26.9-15.1-42.7-16.9
		c-1.2-0.1-2.1-1.8-3.2-2.8c1.4-1.3,2.8-3.7,4.1-3.6C1044.1,1223.9,1046.9,1225.3,1050.4,1226.3z"/>
	<path fill="#0F5F3C" d="M1008.1,1135.6c5.3,1,13.2,6.3,9.9-6.3c8,0,12.7,5.9,19.9,9.3c-5,3.7-9.3-0.7-12.7,1.8
		c16.3,12.5,13.7,14.6-7.3,29.6c-1.6-9.8-1.5-9.6,7.9-15.1c3.8-2.2,3.9-5-0.6-7.2c-6.5-3.2-12.9-6.6-19.4-10
		C1006.6,1137,1007.4,1136.3,1008.1,1135.6z"/>
	<path fill="#151414" d="M882,1231.1c-10.4-0.7-20.8-1.4-31.2-2.3c-2.8-0.2-5.9-1-5.4-4.6c0.4-3,3.6-2.4,5.8-2.4
		c11.2,0.1,22.2,1.5,33,4.6C883.5,1228,882.7,1229.6,882,1231.1z"/>
	<path fill="#0F5F3C" d="M1035.6,1215.9c-6.3-2.6-5.9,4.6-9.4,6.3c-1.4,0.6-0.9,4.7-3.7,2.2c-1.2-1.1-4.3-2-1.4-5
		c4.5-4.6,7-14.8,15.8-4.9C1036.5,1214.9,1036.1,1215.4,1035.6,1215.9z"/>
	<path fill="#0F5F3C" d="M958.2,711.4c-4.4,3.3-9.5,3.2-17.2,5.8C947.8,711.9,950.7,705.7,958.2,711.4z"/>
	<path fill="#0F5F3C" d="M1043.4,1188.9c0.9,7.8,5.3,13.1-1.4,17.9c-1.5,1.1-3.1,1.7-3.9,0.3
		C1034.4,1200.5,1040,1196.4,1043.4,1188.9z"/>
	<path fill="#0F5F3C" d="M882.8,725.3c5.4,3.1,12.8-2.1,19.3,5.8c-8.6-1-15.1-0.5-21.3-3.5C881.5,726.8,882.2,726,882.8,725.3z"/>
	<path fill="#0F5F3C" d="M690.2,1134.4c-4,2.6-7.9,5.7-14.1,3.6c3.5-4.9,8-5.6,12.5-6C689.2,1132.8,689.7,1133.6,690.2,1134.4z"/>
	<path fill="#0F5F3C" d="M668.5,1141.1c2.2-3.2,4-5,7-3.4c1.6,0.8,0.6,2.2,0,2.8C673.5,1142.9,671.1,1142.8,668.5,1141.1z"/>
	<path fill="#0F5F3C" d="M1037,1214.4c0.6,0.7,1.8,1.8,1.7,1.9c-1.3,1.8-2.3,1-3.2-0.5C1036.1,1215.4,1036.5,1214.9,1037,1214.4z"/>
	<path fill="#151414" d="M883.9,1233.3c-0.7-0.8-1.4-1.5-2.2-2.3C882.5,1231.8,883.2,1232.5,883.9,1233.3z"/>
	<path fill="#FDFDFD" d="M795.6,875.6c-17.8,17.1-40.8,7.9-60.6,14.3C752.6,871.9,781.1,866,795.6,875.6z"/>
	<path fill="#FDFDFD" d="M913.9,783.4c-5.9,2.5-8.6,0.9-11.5-0.2c-12.1-4.7-23.7-4.7-34.8,3.4c-4.6,3.3-14.6-1.5-15.9-7
		c-0.2-0.7-0.1-1.5-0.1-2.3c6-0.2,10.2-7.9,13.8-7.2C881.1,773.2,896.4,778.4,913.9,783.4z"/>
	<path fill="#FDFDFD" d="M758.1,737.2c8.6-5.4,18.1-5.2,27.9-2.7C776,732.1,769.2,750.7,758.1,737.2z"/>
	<path fill="#FDFDFD" d="M859.1,761c10.6-5.7,18.9-3.1,27.7-0.5c4.1,1.2,3.3,1.7,2.6,4.8c-0.7,3.2-0.9,5-4.8,3.7
		C876.6,766.2,868.5,763.9,859.1,761z"/>
	<path fill="#FDFDFD" d="M958.4,1181.2c7.8-6.2,13.2,7.4,20.8,2.5c0.2,1.1,0.6,2.3,0.4,3.4c-0.4,2.8-3.1,2.6-4.5,2.1
		C969.4,1187.1,963.2,1185.6,958.4,1181.2z"/>
	<path fill="#FDFDFD" d="M964.6,1146.1c2-4.3,4.8-7.1,9.4-6.8c2.8,0.2,6.3-1.8,8.3,1.4c0.6,0.9,0,3.2-0.8,4.2
		c-1.9,2.2-4.2,4.2-7.7,3.1C970.9,1147.1,967.8,1146.7,964.6,1146.1z"/>
	<path fill="#FDFDFD" d="M871.7,876.5c5.4,2.5,10.9,5,17.5,8C879.8,885.7,879.3,885.4,871.7,876.5z"/>
	<path fill="#FDFDFD" d="M955,1114.1c7.5-9.5,13.8-3.6,20.3-0.5C968.8,1113.9,962.3,1112.2,955,1114.1z"/>
	<path fill="#FDFDFD" d="M985.1,1138.2c4.8-3.7,9.2-5,13.2-0.5c0.6,0.7,0.3,3.5-0.5,4.1C991.7,1146.4,990.6,1136.3,985.1,1138.2z"/>
	<path fill="#FDFDFD" d="M876,797.7c-5,0.4-11.1,4.2-14.2-4.5C867.5,792.9,872,794.5,876,797.7z"/>
	<path fill="#FDFDFD" d="M931.1,820.5c1.8-3.8-8.9-4.9-2.5-8.3c4.3-2.3,8,2.6,10.2,7.6c-2.9,0.1-5.4,0.3-8,0.4L931.1,820.5z"/>
	<path fill="#FDFDFD" d="M819.7,558.9c-0.7,0.2-1.4,0.6-2,0.6c-0.7-0.1-1.3-0.5-1.9-0.8c0.7-0.2,1.4-0.6,2-0.6
		C818.4,558.1,819.1,558.6,819.7,558.9z"/>
	<path fill="#FDFDFD" d="M854.3,605.8c-0.3,0-0.6,0.1-1,0.1c-0.1,0-0.2-0.2-0.3-0.4c0.3,0,0.6-0.1,1-0.1
		C854.1,605.4,854.2,605.6,854.3,605.8z"/>
	<path fill="#FDFDFD" d="M920.4,873.6c-0.9-0.1-1.7-0.1-2.6-0.2c0.8,0,1.7,0.1,2.5,0.1C920.3,873.5,920.4,873.6,920.4,873.6z"/>
	<path fill="#FDFDFD" d="M1093.9,1192.8c-0.1,0.3-0.5,0.9-0.4,1c1,0.8,0.9,1.1-0.3,0.9C1093.4,1194,1093.6,1193.4,1093.9,1192.8
		C1093.9,1192.7,1093.9,1192.8,1093.9,1192.8z"/>
</g>
</svg>
