<?xml version="1.0" encoding="UTF-8" standalone="no"?>
<svg
   xmlns:dc="http://purl.org/dc/elements/1.1/"
   xmlns:cc="http://creativecommons.org/ns#"
   xmlns:rdf="http://www.w3.org/1999/02/22-rdf-syntax-ns#"
   xmlns:svg="http://www.w3.org/2000/svg"
   xmlns="http://www.w3.org/2000/svg"
   xmlns:sodipodi="http://sodipodi.sourceforge.net/DTD/sodipodi-0.dtd"
   xmlns:inkscape="http://www.inkscape.org/namespaces/inkscape"
   version="1.1"
   id="S1gd-EfT-"
   x="0px"
   y="0px"
   viewBox="0 0 512.001 512.001"
   style="enable-background:new 0 0 512.001 512.001;"
   xml:space="preserve"
   sodipodi:docname="mug.svg"
   inkscape:version="0.92.2 (5c3e80d, 2017-08-06)"><metadata
     id="metadata251"><rdf:RDF><cc:Work
         rdf:about=""><dc:format>image/svg+xml</dc:format><dc:type
           rdf:resource="http://purl.org/dc/dcmitype/StillImage" /><dc:title></dc:title></cc:Work></rdf:RDF></metadata><defs
     id="defs249" /><sodipodi:namedview
     pagecolor="#ffffff"
     bordercolor="#666666"
     borderopacity="1"
     objecttolerance="10"
     gridtolerance="10"
     guidetolerance="10"
     inkscape:pageopacity="0"
     inkscape:pageshadow="2"
     inkscape:window-width="1920"
     inkscape:window-height="1004"
     id="namedview247"
     showgrid="false"
     inkscape:zoom="0.46093662"
     inkscape:cx="256.00049"
     inkscape:cy="256.00049"
     inkscape:window-x="-4"
     inkscape:window-y="-4"
     inkscape:window-maximized="1"
     inkscape:current-layer="S1gd-EfT-" /><style
     id="style204">#SyZB79XzT-{fill: #020202;}#SkGrQq7fpb{fill: #020202;}#SkXSXq7M6W{fill: #020202;}#r1ES797fTZ{fill: #020202;}#SkBSQ9Xzab{fill: #020202;}#SkUrQq7GTZ{fill: #020202;}#SJvrmcmz6W{fill: #020202;}#HJOrmcQMp-{fill: #020202;}#BJFB7cXGpb{fill: #020202;}#ry5HQ97zTW{fill: #020202;}@keyframes HJEgd-4G6ZAnimation {
	0% {
		opacity: 0;
		transform: scale(0, 0);
	}
	50% {
		opacity: 1;
		transform: scale(1, 1);
	}
	100% {
		opacity: 0;
		transform: scale(1, 1);
	}
}

#HJEgd-4G6Z {
	transform-origin: 50% 50% !important;
	animation: HJEgd-4G6ZAnimation 3s infinite;
	transform-box: fill-box;
}

@keyframes SyUl_WVGT-Animation {
	0% {
		transform: scale(0, 0);
		opacity: 0;
	}
	50% {
		transform: scale(1, 1);
		opacity: 1;
	}
	100% {
		transform: scale(1, 1);
		opacity: 0;
	}
}

#SyUl_WVGT- {
	transform-origin: 50% 50% !important;
	animation: SyUl_WVGT-Animation 3s infinite;
	transform-box: fill-box;
}

@keyframes SkSx_WEfpWAnimation {
	0% {
		transform: scale(0, 0);
		opacity: 0;
	}
	50% {
		transform: scale(1, 1);
	}
	100% {
		transform: scale(1, 1);
		opacity: 0;
	}
	56.67% {
		opacity: 1;
	}
}

#SkSx_WEfpW {
	transform-origin: 50% 50% !important;
	animation: SkSx_WEfpWAnimation 3s infinite;
	transform-box: fill-box;
}</style><g
     id="g214"><g
       id="g212"><g
         id="g210"><path
           d="M413.669,182.847c-9.66,0-19.093,1.381-28.183,4.111c-0.907-17.72-15.605-31.856-33.545-31.856H33.592
				C15.069,155.101,0,170.171,0,188.694v181.609c0,32.666,21.62,60.376,51.303,69.576v27.783c0,4.622,3.746,8.369,8.369,8.369
				h266.182c4.623,0,8.369-3.747,8.369-8.369v-27.781c28.141-8.719,49.018-34.082,51.115-64.529
				c9.136,2.761,18.622,4.155,28.332,4.155c54.22,0,98.331-44.11,98.331-98.33C512,226.957,467.888,182.847,413.669,182.847z
				 M317.484,459.292L317.484,459.292H68.04v-16.341c1.582,0.104,3.172,0.174,4.779,0.174h239.892c1.606,0,3.192-0.07,4.772-0.174
				V459.292z M368.793,370.303L368.793,370.303c0,30.925-25.159,56.085-56.082,56.085H72.82c-30.923,0-56.082-25.16-56.082-56.085
				V188.694c0-9.294,7.561-16.855,16.855-16.855H351.94c9.293,0,16.854,7.561,16.854,16.855V370.303z M385.531,240.312
				c8.243-5.681,18.093-8.779,28.138-8.779c27.375,0,49.646,22.27,49.646,49.645c0,27.374-22.271,49.644-49.646,49.644
				c-10.055,0-19.895-3.09-28.138-8.772V240.312z M413.669,362.77c-9.716,0-19.151-1.704-28.138-5.025v-16.478
				c8.757,4.103,18.37,6.291,28.138,6.291c36.604,0,66.383-29.778,66.383-66.381c0-36.604-29.781-66.382-66.383-66.382
				c-9.758,0-19.377,2.193-28.138,6.297v-16.481c8.985-3.32,18.418-5.027,28.138-5.027c44.991,0,81.593,36.603,81.593,81.593
				C495.262,326.167,458.66,362.77,413.669,362.77z"
           id="H1medWNM6W" /><path
           d="M276.001,98.965c-7.639,5.616-12.019,13.666-12.019,22.085s4.381,16.469,12.019,22.085
				c1.493,1.098,3.229,1.627,4.95,1.627c2.572,0,5.108-1.182,6.749-3.412c2.738-3.724,1.939-8.962-1.784-11.7
				c-3.352-2.464-5.196-5.518-5.196-8.6c0-3.082,1.844-6.136,5.198-8.601c7.633-5.615,12.012-13.663,12.013-22.081
				c0-8.418-4.379-16.468-12.014-22.086c-3.351-2.464-5.195-5.518-5.195-8.6c0-3.082,1.844-6.135,5.195-8.598
				c3.724-2.738,4.524-7.976,1.786-11.7c-2.736-3.724-7.977-4.522-11.7-1.786c-7.638,5.615-12.019,13.665-12.019,22.084
				s4.381,16.469,12.018,22.083c3.349,2.464,5.193,5.519,5.193,8.602C281.191,93.449,279.348,96.502,276.001,98.965z"
           id="HJEgd-4G6Z" /><path
           d="M194.72,98.965c-7.637,5.616-12.018,13.666-12.018,22.084c0,8.419,4.381,16.468,12.018,22.085
				c1.493,1.098,3.23,1.627,4.952,1.627c2.571,0,5.108-1.182,6.749-3.411c2.738-3.724,1.939-8.961-1.784-11.7
				c-3.35-2.464-5.195-5.518-5.195-8.601c0-3.083,1.846-6.136,5.195-8.6c7.636-5.615,12.016-13.663,12.018-22.082
				c0-8.419-4.38-16.469-12.018-22.086c-3.351-2.464-5.195-5.518-5.195-8.6c0.001-3.082,1.846-6.136,5.195-8.599
				c3.724-2.738,4.522-7.976,1.784-11.7c-2.737-3.724-7.974-4.523-11.7-1.785c-7.637,5.615-12.015,13.665-12.018,22.082
				c0,8.419,4.381,16.469,12.018,22.085c3.35,2.464,5.195,5.519,5.195,8.601C199.915,93.448,198.07,96.502,194.72,98.965z"
           id="SkSx_WEfpW" /><path
           d="M113.571,98.965c-7.637,5.616-12.015,13.666-12.015,22.084c0,8.419,4.38,16.468,12.015,22.085
				c1.493,1.098,3.23,1.627,4.952,1.627c2.571,0,5.108-1.182,6.749-3.411c2.738-3.724,1.939-8.961-1.784-11.7
				c-3.35-2.464-5.194-5.518-5.194-8.601c0-3.083,1.844-6.136,5.195-8.601c7.633-5.615,12.012-13.663,12.012-22.081
				c0.001-8.418-4.377-16.468-12.013-22.086c-3.35-2.464-5.195-5.518-5.194-8.6c0-3.082,1.844-6.136,5.193-8.599
				c3.725-2.738,4.524-7.976,1.785-11.7c-2.738-3.724-7.976-4.523-11.698-1.785c-7.638,5.615-12.018,13.665-12.018,22.082
				c-0.001,8.419,4.38,16.469,12.014,22.084c3.349,2.464,5.193,5.519,5.192,8.602C118.763,93.449,116.919,96.502,113.571,98.965z"
           id="SyUl_WVGT-" /></g></g></g><g
     id="g216" /><g
     id="g218" /><g
     id="g220" /><g
     id="g222" /><g
     id="g224" /><g
     id="g226" /><g
     id="g228" /><g
     id="g230" /><g
     id="g232" /><g
     id="g234" /><g
     id="g236" /><g
     id="g238" /><g
     id="g240" /><g
     id="g242" /><g
     id="g244" /><path
     style="fill:#ececec;fill-opacity:1;stroke-width:2.16949558"
     d="m 57.019299,422.69347 c -18.722468,-6.77058 -31.975813,-19.87494 -36.676088,-36.26385 -1.239173,-4.32074 -2.119447,-48.06925 -2.119447,-105.33374 0,-93.19597 0.201,-98.19192 4.146584,-103.06536 l 4.146585,-5.12172 161.761207,-0.59598 c 175.28267,-0.6458 175.33252,-0.64279 178.15384,10.75812 0.68385,2.76339 0.96267,49.44476 0.61959,103.73639 -0.56789,89.8697 -0.97285,99.41314 -4.52095,106.53868 -5.11886,10.28007 -15.45703,20.67941 -26.36095,26.51698 -8.71374,4.66501 -9.97244,4.71163 -140.04726,5.18803 -103.643255,0.37959 -132.905558,-0.11629 -139.103111,-2.35755 z"
     id="path253"
     inkscape:connector-curvature="0" /><path
     style="fill:#ececec;fill-opacity:1;stroke-width:2.16949558"
     d="m 409.81773,361.50698 c -1.19322,-0.32754 -6.80679,-1.22027 -12.4746,-1.98384 -9.97983,-1.3445 -10.3051,-1.61902 -10.3051,-8.69718 0,-7.21131 0.0939,-7.28193 7.03653,-5.29081 13.76191,3.94687 34.36815,2.39332 47.20086,-3.55857 23.85726,-11.06515 36.83862,-30.08556 38.57227,-56.51643 1.33219,-20.31029 -3.26017,-34.15393 -16.04828,-48.37739 -17.05797,-18.97257 -42.51543,-27.21933 -65.37153,-21.17665 l -11.38985,3.01125 v -7.12162 c 0,-6.88618 0.39471,-7.20356 11.93913,-9.60018 34.00558,-7.05953 72.46707,12.80132 87.40523,45.13454 6.77501,14.66433 8.77376,36.63145 4.90569,53.91579 -5.33238,23.82757 -28.07601,48.17241 -52.18216,55.85592 -9.93035,3.16517 -25.35424,5.48504 -29.28819,4.40517 z"
     id="path255"
     inkscape:connector-curvature="0" /><path
     style="fill:#ffffff;fill-opacity:1;stroke-width:2.16949558"
     d="m 68.121969,451.14662 -1.95e-4,-7.05086 H 191.78301 315.44424 l 2.1e-4,7.05086 2.2e-4,7.05086 H 191.78342 68.122164 Z"
     id="path257"
     inkscape:connector-curvature="0" /><path
     style="fill:#ffffff;fill-opacity:1;stroke-width:2.16949558"
     d="m 406.3827,361.85883 c -0.49718,-0.48447 -4.20753,-1.39617 -8.24523,-2.02601 -9.15698,-1.42838 -11.66656,-3.85888 -10.74075,-10.40227 0.55301,-3.90859 1.76016,-4.87306 5.06505,-4.04684 2.38644,0.59661 12.63731,1.0736 22.7797,1.05999 16.33638,-0.0219 19.76738,-0.75676 30.06661,-6.43938 23.64435,-13.04584 36.17565,-35.96821 34.49876,-63.10545 -1.60713,-26.00818 -15.28684,-45.40189 -40.00834,-56.71976 -12.35205,-5.65496 -32.36241,-6.97683 -45.70961,-3.01954 -6.77704,2.00932 -7.05086,1.85394 -7.05086,-4.0009 0,-9.48776 4.72262,-11.75433 24.5666,-11.79044 26.53351,-0.0483 40.47433,5.83872 60.62183,25.59964 7.6115,7.46545 15.9819,21.82427 18.44207,31.63601 0.44877,1.78984 1.20175,11.55257 1.67328,21.69496 0.76368,16.42642 0.21772,19.86257 -4.99824,31.45769 -6.60167,14.67558 -7.56512,16.12022 -17.1294,25.6845 -8.99376,8.99376 -10.87282,10.32968 -22.43027,15.94689 -12.77336,6.20816 -38.3524,11.44177 -41.4012,8.47091 z"
     id="path259"
     inkscape:connector-curvature="0" /><path
     style="fill:#ffffff;fill-opacity:1;stroke-width:2.16949558"
     d="m 68.122164,423.69471 c -16.485562,-1.92139 -23.864452,-4.04368 -23.864452,-6.86385 0,-1.1128 -1.247009,-2.02329 -2.771132,-2.02329 -3.94228,0 -14.541226,-12.58086 -19.082226,-22.65042 -3.511392,-7.78645 -3.86463,-17.57845 -3.961538,-109.81664 -0.104938,-99.88195 -0.04463,-101.3238 4.406537,-105.34982 4.335349,-3.92127 11.042115,-4.08189 170.441647,-4.08189 h 165.92871 l 4.42278,5.42374 c 4.3447,5.32803 4.40483,7.22861 3.40693,107.69504 l -1.01582,102.27129 -5.8699,10.01619 c -3.22842,5.50892 -8.50922,11.69489 -11.7351,13.74662 -3.22587,2.05172 -6.37324,4.4241 -6.99413,5.27192 -4.36038,5.95405 -17.91427,6.68142 -136.63408,7.33246 -67.41708,0.36973 -128.922279,-0.0675 -136.678226,-0.97135 z"
     id="path261"
     inkscape:connector-curvature="0" /></svg>