<?xml version="1.0" encoding="utf-8"?>
<!-- Generator: Adobe Illustrator 20.0.0, SVG Export Plug-In . SVG Version: 6.00 Build 0)  -->
<svg version="1.1"
	 id="SJa608Da-" inkscape:version="0.92.2 (5c3e80d, 2017-08-06)" sodipodi:docname="smartphone(2).svg" xmlns:cc="http://creativecommons.org/ns#" xmlns:dc="http://purl.org/dc/elements/1.1/" xmlns:inkscape="http://www.inkscape.org/namespaces/inkscape" xmlns:rdf="http://www.w3.org/1999/02/22-rdf-syntax-ns#" xmlns:sodipodi="http://sodipodi.sourceforge.net/DTD/sodipodi-0.dtd" xmlns:svg="http://www.w3.org/2000/svg"
	 xmlns="http://www.w3.org/2000/svg" xmlns:xlink="http://www.w3.org/1999/xlink" x="0px" y="0px" viewBox="0 0 430 430"
	 style="enable-background:new 0 0 430 430;" xml:space="preserve">
<style type="text/css">
	.st0{fill:#FFFFFF;}
	.st1{fill:none;stroke:#000000;stroke-width:3;stroke-miterlimit:10;}
	.st2{fill:none;stroke:#000000;stroke-miterlimit:10;}
	.st3{fill:#010002;}
	.st4{fill:none;stroke:#000000;stroke-width:0.75;stroke-miterlimit:10;}
	.st5{fill:none;stroke:#000000;stroke-width:0.25;stroke-miterlimit:10;}
	.st6{fill:#FFFFFF;stroke:#BDBDBD;stroke-width:3;stroke-miterlimit:10;}
	.st7{stroke:#BDBDBD;stroke-width:2;stroke-miterlimit:10;}
</style>
<sodipodi:namedview  bordercolor="#666666" borderopacity="1" gridtolerance="10" guidetolerance="10" id="rJgaTAUPpZ" inkscape:current-layer="Capa_1" inkscape:cx="215" inkscape:cy="215" inkscape:pageopacity="0" inkscape:pageshadow="2" inkscape:window-height="1004" inkscape:window-maximized="1" inkscape:window-width="1920" inkscape:window-x="-4" inkscape:window-y="-4" inkscape:zoom="1.8976744" objecttolerance="10" pagecolor="#ffffff" showgrid="false">
	</sodipodi:namedview>
<g id="Hyb6aA8DpW">
	<path id="B1Ma6A8wTW" d="M140,0c-7.9,0-15.7,3.2-21.2,8.8c-5.6,5.6-8.8,13.4-8.8,21.2v370c0,7.9,3.2,15.7,8.8,21.2
		c5.6,5.6,13.4,8.8,21.2,8.8h150c7.9,0,15.7-3.2,21.2-8.8c5.6-5.6,8.8-13.4,8.8-21.2V30c0-7.9-3.2-15.7-8.8-21.2
		C305.7,3.2,297.9,0,290,0H140z M199.3,20c0.1,0,0.1,0,0.2,0c0.2,0,0.3,0,0.5,0h30c2.8,0,5,2.2,5.1,4.9s-2.2,5-4.9,5.1h-0.1h-30
		c-2.8,0.2-5.2-1.9-5.4-4.6C194.4,22.6,196.5,20.2,199.3,20L199.3,20z M120,50h190v325H120V50z M215,385c8.3,0,15,6.7,15,15
		s-6.7,15-15,15s-15-6.7-15-15S206.7,385,215,385z"/>
</g>
<g id="S1Xa6A8wpZ">
</g>
<g id="SkVpTRLv6Z">
</g>
<g id="HJS6pCIPab">
</g>
<g id="HJI6TAUPpW">
</g>
<g id="SkP6TAIw6W">
</g>
<g id="rk_6TR8wa-">
</g>
<g id="H1tTTALwTW">
</g>
<g id="S15T6RUv6b">
</g>
<g id="H1oapC8vpW">
</g>
<g id="H1hapRUDp-">
</g>
<g id="H1aTT08Da-">
</g>
<g id="r1Ca6ALP6W">
</g>
<g id="H1Jga6R8vp-">
</g>
<g id="rylx6aCLvTZ">
</g>
<g id="SkWgTaRLwTZ">
</g>
<path id="HJMg6TRUD6Z" inkscape:connector-curvature="0" class="st0" d="M120.4,210.6V45H215h94.6v165.6v165.6H215h-94.6V210.6z"/>
<g>
	<g>
		<path id="HJKxaaA8DT-" d="M153.9,345.4c-5.5,0-10,4.5-10,10s4.5,10,10,10s10-4.5,10-10S159.4,345.4,153.9,345.4z M153.9,364
			c-4.8,0-8.7-3.9-8.7-8.7c0-4.8,3.9-8.7,8.7-8.7s8.7,3.9,8.7,8.7C162.6,360.1,158.7,364,153.9,364z"/>
		<path id="By5lap08wTZ" d="M157.2,352.1c-0.3-0.3-0.7-0.3-0.9,0l-2.3,2.3l-2.3-2.3c-0.3-0.3-0.7-0.3-0.9,0c-0.3,0.3-0.3,0.7,0,0.9
			l2.3,2.3l-2.3,2.3c-0.3,0.3-0.3,0.7,0,0.9c0.1,0.1,0.3,0.2,0.5,0.2s0.3-0.1,0.5-0.2l2.3-2.3l2.3,2.3c0.1,0.1,0.3,0.2,0.5,0.2
			s0.3-0.1,0.5-0.2c0.3-0.3,0.3-0.7,0-0.9l-2.3-2.3l2.3-2.3C157.4,352.7,157.4,352.3,157.2,352.1z"/>
	</g>
</g>
<line id="BJsg6aCLDpW" class="st1" x1="116.4" y1="337" x2="313.4" y2="337"/>
<line id="SJhlTa0LwTZ" class="st2" x1="116.4" y1="87" x2="313.4" y2="87"/>
<g>
	<g>
		<path id="Bykb6TAIDTW" class="st3" d="M275.2,345c-5.7,0-10.3,4.6-10.3,10.3s4.6,10.3,10.3,10.3s10.3-4.6,10.3-10.3
			C285.5,349.7,280.9,345,275.2,345z M275.2,364c-4.8,0-8.6-3.9-8.6-8.6c0-4.8,3.9-8.6,8.6-8.6c4.8,0,8.6,3.9,8.6,8.6
			C283.8,360.1,280,364,275.2,364z"/>
		<path id="SkxZTaRIwaW" class="st3" d="M278.5,352.1l-4.8,4.8l-1.8-1.8c-0.3-0.3-0.8-0.3-1.2,0c-0.3,0.3-0.3,0.8,0,1.2l2.3,2.3
			c0.2,0.2,0.4,0.2,0.6,0.2s0.4-0.1,0.6-0.2l5.4-5.4c0.3-0.3,0.3-0.8,0-1.2C279.3,351.7,278.8,351.7,278.5,352.1z"/>
	</g>
</g>
<g>
	<g id="HyG-apRUvp-">
		<path id="rJ7WT6CUD6Z" d="M204.4,349.5h20.1c0.4,0,0.7-0.3,0.7-0.7c0-0.4-0.3-0.7-0.7-0.7h-20.1c-0.4,0-0.7,0.3-0.7,0.7
			S204,349.5,204.4,349.5z"/>
		<path id="rJVWTp0LDT-" d="M224.4,354.8h-20.1c-0.4,0-0.7,0.3-0.7,0.7s0.3,0.7,0.7,0.7h20.1c0.4,0,0.7-0.3,0.7-0.7
			S224.8,354.8,224.4,354.8z"/>
		<path id="rJB-paAIwTW" d="M224.4,361.5h-20.1c-0.4,0-0.7,0.3-0.7,0.7c0,0.4,0.3,0.7,0.7,0.7h20.1c0.4,0,0.7-0.3,0.7-0.7
			C225.1,361.8,224.8,361.5,224.4,361.5z"/>
	</g>
</g>
<g>
	<g>
		<path id="Skd-6aALvT-" class="st3" d="M268.9,75h12.6c2,0,3.6-1.6,3.6-3.6V58.8c0-2-1.6-3.6-3.6-3.6h-12.6c-2,0-3.6,1.6-3.6,3.6
			v12.6C265.4,73.4,267,75,268.9,75z M280.9,73.7h-11.3v-1.4c0-0.7,0.4-1.4,1-1.8c0.5-0.3,1.6-0.4,2.4-0.5c0.2,0,0.4,0,0.6-0.1h0.1
			c0.9-0.1,2.3-0.1,3.2,0h0.1c0.2,0,0.4,0,0.6,0.1c0.8,0.1,1.9,0.2,2.4,0.5c0.6,0.4,1,1.1,1,1.8v1.4H280.9z M266.6,58.8
			c0-1.3,1-2.3,2.3-2.3h12.6c1.3,0,2.3,1,2.3,2.3v12.6c0,1.1-0.7,1.9-1.7,2.2v-1.3c0-1.2-0.6-2.2-1.5-2.9c-0.8-0.5-2-0.6-3-0.7
			c-0.2,0-0.4,0-0.5-0.1H277c-1-0.1-2.5-0.1-3.5,0h-0.1c-0.2,0-0.3,0-0.5,0.1c-1,0.1-2.2,0.2-3,0.7c-1,0.6-1.5,1.7-1.5,2.9v1.3
			c-1-0.3-1.7-1.2-1.7-2.2L266.6,58.8L266.6,58.8z"/>
		<path id="BktWpT0Uwab" class="st3" d="M275.1,67.7c2.5,0,4.5-2.2,4.5-4.9s-2-4.9-4.5-4.9s-4.5,2.2-4.5,4.9S272.6,67.7,275.1,67.7z
			 M275.1,58.9c1.9,0,3.5,1.7,3.5,3.9s-1.6,3.9-3.5,3.9s-3.5-1.7-3.5-3.9S273.2,58.9,275.1,58.9z"/>
	</g>
</g>
<line id="H15bTpRUwTW" class="st4" x1="259.5" y1="58.9" x2="235.1" y2="58.9"/>
<line id="B1j-6aR8Pp-" class="st5" x1="259.5" y1="65.1" x2="219.2" y2="65.1"/>
<line id="rk2-TaRLPp-" class="st5" x1="259.5" y1="71.8" x2="228.5" y2="71.8"/>
<circle class="st6" cx="215" cy="400" r="17.8"/>
<circle cx="215" cy="400" r="15.9"/>
<path class="st7" d="M235.1,30h-38c-2.8,0-5-2.3-5-5v0c0-2.8,2.3-5,5-5h38c2.8,0,5,2.3,5,5v0C240.1,27.7,237.8,30,235.1,30z"/>
</svg>
