<?xml version="1.0" encoding="utf-8"?>
<!-- Generator: Adobe Illustrator 22.0.1, SVG Export Plug-In . SVG Version: 6.00 Build 0)  -->
<svg version="1.1" id="Layer_1" xmlns="http://www.w3.org/2000/svg" xmlns:xlink="http://www.w3.org/1999/xlink" x="0px" y="0px"
	 viewBox="0 0 1200 800" style="enable-background:new 0 0 1200 800;" xml:space="preserve">
<g>
	<path d="M471.9,428.2h-1.6c-0.4,0-1.2,0-2.5,0c-1.3,0-2.3-0.8-3.1-2.2c-0.8-1.4-2-2.2-3.6-2.3c-1.6-0.1-4.9-0.2-9.8-0.2
		c-0.5,0-0.9,0.1-1.2,0.3c-0.4,0.2-0.5,0.5-0.5,0.9c0,0.4,0.2,0.7,0.5,0.9s0.8,0.3,1.2,0.3h7.9c2.2,0,3.6,0.7,4.2,2.2
		c0.2,0.6,0.3,1.4,0.3,2.4c-0.2,4.9-2.4,8.7-6.6,11.5c-3.7,2.4-8.1,3.6-13.4,3.6c-5.1,0-8.9-1.3-11.4-3.9c-2-2.1-3.1-5-3.2-8.7
		c-0.2-4.2,0.5-8.4,2.2-12.6h4.2c-1,4.5-1.1,7.6-0.1,9.5c1,2.2,4.1,3.3,9.2,3.3c7.1,0.1,11.6-0.5,13.3-1.6c0.5-0.3,0.6-0.7,0.4-1.1
		s-0.6-0.6-1.1-0.6c-1.7,0-4.1,0-7.3,0c-2,0-3.5-0.8-4.6-2.3c-0.8-1.5-1.2-3.1-1.2-4.7c0-1.8,0.7-3.4,2-4.9c1.4-1.6,2.9-2.4,4.6-2.4
		c12.3,0,19.3,0,21,0V428.2z"/>
	<path d="M471.1,415.6h22.2v12.6h-22.2V415.6z"/>
	<path d="M492.8,415.6h22.2v12.6h-22.2V415.6z"/>
	<path d="M514.6,415.6h22.2v12.6h-22.2V415.6z"/>
	<path d="M536.3,415.6h22.2v12.6h-22.2V415.6z"/>
	<path d="M558,415.6h22.2v12.6H558V415.6z"/>
	<path d="M579.7,415.6h22.2v12.6h-22.2V415.6z"/>
	<path d="M630.2,415.6c1.6-0.1,2.4-0.6,2.4-1.5c0-1-2.1-2.7-6.3-5.2l7.1-9.9c1.8,2.3,3,4.6,3.6,6.9c0.3,1.1,0.4,2,0.3,2.7v11.3
		c0,1.9-0.6,3.5-1.8,5c-1.1,1.3-2.5,2.3-4.3,2.8c-1.8,0.6-3.5,0.6-5.3,0.2c-1.9-0.4-3.5-1.4-4.7-2.9c-1.4,2.1-3.2,3.1-5.5,3.1
		c-2.4,0-4.2-1.1-5.6-3.3c-1.9,2.2-3.9,3.3-5.9,3.3h-2.9v-12.6h4.1c0.8,0,1.4-0.3,2-0.8c0.6-0.5,0.8-1.2,0.8-2v-3.8h5.1v3.8
		c0,0.8,0.2,1.5,0.6,2c0.4,0.6,1,0.8,1.8,0.8c0.8,0,1.4-0.3,1.8-0.8c0.4-0.5,0.6-1.2,0.6-2v-3.8h5.1v3.8c0,1,0.5,1.7,1.6,2.2
		c0.9,0.4,1.8,0.7,2.8,0.7H630.2z"/>
	<path d="M655.1,415.6v12.6h-5.6c-2.3,0-4.3-1-6-3.1c-1.7-2.1-2.5-4.6-2.5-7.5v-18.7c-0.8,0.1-1.5-0.1-2.1-0.6
		c-0.5-0.4-0.9-1-1.1-1.7c-0.2-0.7-0.2-1.4,0-2.1c0.2-0.8,0.7-1.4,1.3-1.8c3.8-2.5,6.5-4.3,8.1-5.5c0.6-0.4,1.2-0.5,1.6-0.3
		c0.4,0.3,0.6,0.8,0.6,1.5v23.4c0,1.3,0.2,2.3,0.7,2.9c0.5,0.7,1.4,1,2.6,1H655.1z"/>
	<path d="M681.8,415.6v12.6h-1.9c-2.4,0-4.7-1.6-7.1-4.9c-0.9,2-2.5,3.4-4.8,4.2c-1.3,0.5-2.6,0.7-3.9,0.7h-10v-12.6l11.1,0
		c1.6,0,2.7-0.5,3.2-1.4c0.4-0.8,0.4-1.8-0.3-2.8c-1-1.8-3.7-3.9-8.1-6.4c-3.1-1.8-5.1-2.9-6-3.3l3.3-11.5l19.6-9.9
		c0.9-0.5,1.7-0.6,2.3-0.3c0.6,0.3,0.9,1,0.7,2c-0.1,0.8-0.5,2.8-1.2,6.1c-0.6,2.8-1,4.8-1.2,6.1c-0.1,0.6-0.4,1-1,1.4
		c-0.5,0.3-1,0.4-1.6,0.3c-0.6-0.1-1-0.4-1.3-0.9c-0.3-0.5-0.4-1-0.3-1.5l-8.4,3.9c0.5,0.4,1.5,1.4,3,2.9c0.4,0.4,0.7,0.7,0.9,0.9
		c2.1,2.6,3.6,4.9,4.5,6.7c0.4,0.9,1.1,2.9,2.1,5.9c0.2,0.4,0.4,0.7,0.6,1c0.5,0.6,1.2,0.9,2,0.9H681.8z"/>
	<path d="M681.2,415.6h22.2v12.6h-22.2V415.6z"/>
	<path d="M702.9,415.6h22.2v12.6h-22.2V415.6z"/>
	<path d="M724.7,415.6h22.2v12.6h-22.2V415.6z"/>
	<path d="M771.9,415.6l-2.5,12.6h-23.1v-12.6h3.3c0-0.2,0-0.3-0.1-0.5c-0.4-3.2,0.3-6,2.2-8.3c1.7-2.2,4-3.6,6.8-4.4
		c2.9-0.7,5.5-0.5,7.8,0.8c2.6,1.3,4.3,3.6,5.1,6.9h-14.1c-0.8,0-1.4,0.3-2,0.8c-0.5,0.5-0.8,1.2-0.8,2c0,0.8,0.3,1.4,0.8,1.9
		c0.6,0.5,1.2,0.8,2,0.8H771.9z"/>
</g>
</svg>
